<svg width="459" height="71" viewBox="0 0 459 71" fill="none" xmlns="http://www.w3.org/2000/svg">
<path fill-rule="evenodd" clip-rule="evenodd" d="M29.0387 29.31V29.2191C24.06 26.9151 17.794 23.4993 11.5225 18.5172C0.827999 10.0284 10.8762 0.62009 20.8335 0.62009C27.2866 0.62009 32.9116 3.93971 36.0473 9.01804C36.0473 9.01804 36.229 9.38689 36.5067 9.19979C36.7845 9.10891 36.5976 8.83094 36.5976 8.83094C33.371 3.57087 27.4735 0.0694929 20.8335 0.0694929C10.6037 0.0694929 2.30237 8.28035 2.30237 18.5172C2.30237 23.5902 5.80668 28.1125 11.0631 30.6945C13.7341 32.2661 27.1958 39.5521 33.9266 43.3315C45.4491 49.8852 34.6638 64.0885 20.7427 64.0885C9.58876 64.0885 0.555561 56.0647 0.555561 46.1914C0.555561 45.9188 0.459406 45.7317 0.27778 45.7317C0 45.7317 0 46.0096 0 46.1914C0 56.3427 9.22017 64.6444 20.7427 64.6444C32.1744 64.6444 41.4854 56.3427 41.4854 46.1914C41.4854 38.6274 39.1777 34.1103 29.0387 29.31ZM44.9523 8.84698L44.8134 8.49952C45.5346 8.19482 46.1169 7.87408 46.5335 7.53731C46.9556 7.20053 47.3242 6.76754 47.6233 6.23832C48.0934 5.42579 48.3551 4.63999 48.4246 3.87557C48.1201 3.97713 47.8583 4.02524 47.634 4.02524C47.0197 4.02524 46.5175 3.84349 46.1276 3.47999C45.7323 3.11649 45.5346 2.64073 45.5346 2.05271C45.5346 1.49142 45.7323 1.01032 46.1276 0.609399C46.5229 0.203133 46.9929 0 47.5432 0C48.2162 0 48.7611 0.26728 49.1778 0.807187C49.5945 1.34709 49.7975 2.05806 49.7975 2.95078C49.7975 3.82745 49.5891 4.69344 49.1671 5.55409C48.7451 6.41473 48.1895 7.10966 47.4951 7.6656C46.7632 8.24827 45.9139 8.64385 44.9523 8.84698ZM64.4343 0.988937C64.2474 0.342119 63.9696 0.0694929 63.5102 0.0694929C63.2324 0.0694929 63.2324 0.160368 63.1416 0.342119L44.338 64.1847C44.2419 64.3665 44.338 64.6444 44.4288 64.6444C44.6104 64.7353 44.7974 64.6444 44.8882 64.3664L55.5828 28.0644H64.1566L74.9419 58.8177C76.0477 61.9556 78.3554 64.4573 81.9505 64.7353H84.9901C85.7273 64.7353 86.5553 64.0885 86.2828 63.3508L64.4343 0.988937ZM55.7644 27.5138L59.4557 14.8608L63.9696 27.5138H55.7644ZM101.4 64.6444C101.951 64.6444 102.506 64.0885 102.506 63.5379V1.17603C102.506 0.529215 101.951 0.0694929 101.4 0.0694929H94.3919C93.7509 0.0694929 93.2861 0.529215 93.2861 1.17603V56.8933C93.2861 61.1377 96.6996 64.6444 101.032 64.6444H101.4ZM130.161 18.3354C128.137 18.3354 124.542 19.442 120.941 21.933V0.988937C120.941 0.43834 120.391 0.0694929 119.835 0.0694929H112.832C112.186 0.0694929 111.726 0.43834 111.726 0.988937V63.3508C111.726 63.9976 112.186 64.6444 112.832 64.6444H119.835C120.391 64.6444 120.941 63.9976 120.941 63.3508V58.9246C123.708 62.1534 126.753 64.4573 130.161 64.4573C143.992 64.4573 148.602 54.2205 148.602 41.3964C148.602 28.6631 143.992 18.3354 130.161 18.3354ZM130.161 63.8159C127.122 63.8159 123.895 61.4157 120.941 58.0961V24.7929L116.887 27.284C117.255 26.3592 117.811 25.5306 118.548 24.7929C119.376 23.8681 120.85 22.8525 120.941 22.7616C124.905 19.9017 128.874 19.0731 130.071 19.0731C136.801 19.0731 138.922 29.2191 138.922 41.4873C139.013 53.6646 136.614 63.8159 130.161 63.8159ZM187.133 28.2943C187.32 28.2943 187.411 28.1125 187.411 28.0217C187.411 27.8346 187.32 27.7437 187.229 27.5566C183.816 22.0239 178.559 18.5172 172.571 18.5172C162.336 18.5172 154.131 28.8502 154.131 41.5781C154.131 54.3114 162.336 64.6444 172.571 64.6444C178.469 64.6444 183.725 61.1377 187.042 55.7868C187.133 55.6959 187.229 55.5088 187.042 55.4179C186.861 55.327 186.674 55.5088 186.674 55.5088C184.644 58.7375 181.973 61.2286 178.837 62.704C178.655 62.8002 178.469 62.8911 178.287 62.8911C173.581 64.1847 167.224 55.6959 163.997 43.8874C162.427 38.0768 161.967 32.5387 162.427 28.2943H187.133ZM166.118 20.5485C166.118 20.5485 166.668 20.2705 166.855 20.1797C169.804 19.442 173.399 22.4836 176.439 27.7437H162.523C163.073 24.0552 164.27 21.468 166.118 20.5485ZM203.544 22.2057V19.6237C203.544 18.9769 202.993 18.5172 202.438 18.5172H195.429C194.788 18.5172 194.323 18.9769 194.323 19.6237V63.5379C194.323 64.0885 194.788 64.6444 195.429 64.6444H202.438C202.993 64.6444 203.544 64.0885 203.544 63.5379V24.8838L199.489 27.3749C201.61 22.5798 209.078 18.9769 217.924 18.9769C217.924 18.9769 218.111 18.9769 218.111 18.7043C218.111 18.5172 217.924 18.5172 217.924 18.5172C212.208 18.5172 207.048 19.9017 203.544 22.2057ZM235.168 18.5172C224.933 18.5172 216.727 28.8502 216.727 41.5781C216.727 54.3114 224.933 64.6444 235.168 64.6444C245.307 64.6444 253.603 54.3114 253.603 41.5781C253.603 28.8502 245.307 18.5172 235.168 18.5172ZM240.878 62.8911C236.177 64.1847 229.724 55.6959 226.589 43.8874C223.458 32.079 224.655 21.468 229.447 20.2705C234.153 18.9769 240.51 27.4657 243.645 39.2742C246.781 51.0826 245.584 61.6936 240.878 62.8911Z" fill="url(#paint0_linear_118_364)"/>
<path fill-rule="evenodd" clip-rule="evenodd" d="M29.0387 29.31V29.2191C24.06 26.9151 17.794 23.4993 11.5225 18.5172C0.827999 10.0284 10.8762 0.62009 20.8335 0.62009C27.2866 0.62009 32.9116 3.93971 36.0473 9.01804C36.0473 9.01804 36.229 9.38689 36.5067 9.19979C36.7845 9.10891 36.5976 8.83094 36.5976 8.83094C33.371 3.57087 27.4735 0.0694929 20.8335 0.0694929C10.6037 0.0694929 2.30237 8.28035 2.30237 18.5172C2.30237 23.5902 5.80668 28.1125 11.0631 30.6945C13.7341 32.2661 27.1958 39.5521 33.9266 43.3315C45.4491 49.8852 34.6638 64.0885 20.7427 64.0885C9.58876 64.0885 0.555561 56.0647 0.555561 46.1914C0.555561 45.9188 0.459406 45.7317 0.27778 45.7317C0 45.7317 0 46.0096 0 46.1914C0 56.3427 9.22017 64.6444 20.7427 64.6444C32.1744 64.6444 41.4854 56.3427 41.4854 46.1914C41.4854 38.6274 39.1777 34.1103 29.0387 29.31ZM44.9523 8.84698L44.8134 8.49952C45.5346 8.19482 46.1169 7.87408 46.5335 7.53731C46.9556 7.20053 47.3242 6.76754 47.6233 6.23832C48.0934 5.42579 48.3551 4.63999 48.4246 3.87557C48.1201 3.97713 47.8583 4.02524 47.634 4.02524C47.0197 4.02524 46.5175 3.84349 46.1276 3.47999C45.7323 3.11649 45.5346 2.64073 45.5346 2.05271C45.5346 1.49142 45.7323 1.01032 46.1276 0.609399C46.5229 0.203133 46.9929 0 47.5432 0C48.2162 0 48.7611 0.26728 49.1778 0.807187C49.5945 1.34709 49.7975 2.05806 49.7975 2.95078C49.7975 3.82745 49.5891 4.69344 49.1671 5.55409C48.7451 6.41473 48.1895 7.10966 47.4951 7.6656C46.7632 8.24827 45.9139 8.64385 44.9523 8.84698ZM64.4343 0.988937C64.2474 0.342119 63.9696 0.0694929 63.5102 0.0694929C63.2324 0.0694929 63.2324 0.160368 63.1416 0.342119L44.338 64.1847C44.2419 64.3665 44.338 64.6444 44.4288 64.6444C44.6104 64.7353 44.7974 64.6444 44.8882 64.3664L55.5828 28.0644H64.1566L74.9419 58.8177C76.0477 61.9556 78.3554 64.4573 81.9505 64.7353H84.9901C85.7273 64.7353 86.5553 64.0885 86.2828 63.3508L64.4343 0.988937ZM55.7644 27.5138L59.4557 14.8608L63.9696 27.5138H55.7644ZM101.4 64.6444C101.951 64.6444 102.506 64.0885 102.506 63.5379V1.17603C102.506 0.529215 101.951 0.0694929 101.4 0.0694929H94.3919C93.7509 0.0694929 93.2861 0.529215 93.2861 1.17603V56.8933C93.2861 61.1377 96.6996 64.6444 101.032 64.6444H101.4ZM130.161 18.3354C128.137 18.3354 124.542 19.442 120.941 21.933V0.988937C120.941 0.43834 120.391 0.0694929 119.835 0.0694929H112.832C112.186 0.0694929 111.726 0.43834 111.726 0.988937V63.3508C111.726 63.9976 112.186 64.6444 112.832 64.6444H119.835C120.391 64.6444 120.941 63.9976 120.941 63.3508V58.9246C123.708 62.1534 126.753 64.4573 130.161 64.4573C143.992 64.4573 148.602 54.2205 148.602 41.3964C148.602 28.6631 143.992 18.3354 130.161 18.3354ZM130.161 63.8159C127.122 63.8159 123.895 61.4157 120.941 58.0961V24.7929L116.887 27.284C117.255 26.3592 117.811 25.5306 118.548 24.7929C119.376 23.8681 120.85 22.8525 120.941 22.7616C124.905 19.9017 128.874 19.0731 130.071 19.0731C136.801 19.0731 138.922 29.2191 138.922 41.4873C139.013 53.6646 136.614 63.8159 130.161 63.8159ZM187.133 28.2943C187.32 28.2943 187.411 28.1125 187.411 28.0217C187.411 27.8346 187.32 27.7437 187.229 27.5566C183.816 22.0239 178.559 18.5172 172.571 18.5172C162.336 18.5172 154.131 28.8502 154.131 41.5781C154.131 54.3114 162.336 64.6444 172.571 64.6444C178.469 64.6444 183.725 61.1377 187.042 55.7868C187.133 55.6959 187.229 55.5088 187.042 55.4179C186.861 55.327 186.674 55.5088 186.674 55.5088C184.644 58.7375 181.973 61.2286 178.837 62.704C178.655 62.8002 178.469 62.8911 178.287 62.8911C173.581 64.1847 167.224 55.6959 163.997 43.8874C162.427 38.0768 161.967 32.5387 162.427 28.2943H187.133ZM166.118 20.5485C166.118 20.5485 166.668 20.2705 166.855 20.1797C169.804 19.442 173.399 22.4836 176.439 27.7437H162.523C163.073 24.0552 164.27 21.468 166.118 20.5485ZM203.544 22.2057V19.6237C203.544 18.9769 202.993 18.5172 202.438 18.5172H195.429C194.788 18.5172 194.323 18.9769 194.323 19.6237V63.5379C194.323 64.0885 194.788 64.6444 195.429 64.6444H202.438C202.993 64.6444 203.544 64.0885 203.544 63.5379V24.8838L199.489 27.3749C201.61 22.5798 209.078 18.9769 217.924 18.9769C217.924 18.9769 218.111 18.9769 218.111 18.7043C218.111 18.5172 217.924 18.5172 217.924 18.5172C212.208 18.5172 207.048 19.9017 203.544 22.2057ZM235.168 18.5172C224.933 18.5172 216.727 28.8502 216.727 41.5781C216.727 54.3114 224.933 64.6444 235.168 64.6444C245.307 64.6444 253.603 54.3114 253.603 41.5781C253.603 28.8502 245.307 18.5172 235.168 18.5172ZM240.878 62.8911C236.177 64.1847 229.724 55.6959 226.589 43.8874C223.458 32.079 224.655 21.468 229.447 20.2705C234.153 18.9769 240.51 27.4657 243.645 39.2742C246.781 51.0826 245.584 61.6936 240.878 62.8911Z" fill="#E8D6AC"/>
<path d="M291.544 36.5293V21.1245H297.551C298.901 21.1245 300.053 21.3372 301.007 21.7627C301.96 22.1882 302.694 22.8044 303.207 23.6113C303.721 24.4182 303.977 25.3792 303.977 26.4942C303.977 27.6092 303.721 28.5702 303.207 29.3771C302.694 30.1693 301.96 30.7855 301.007 31.2256C300.053 31.6511 298.901 31.8638 297.551 31.8638H292.754L293.744 30.8295V36.5293H291.544ZM293.744 31.0496L292.754 29.9492H297.485C298.894 29.9492 299.958 29.6485 300.676 29.047C301.41 28.4454 301.777 27.5945 301.777 26.4942C301.777 25.3938 301.41 24.5429 300.676 23.9414C299.958 23.3399 298.894 23.0391 297.485 23.0391H292.754L293.744 21.9388V31.0496ZM307.211 36.5293V21.1245H313.218C314.568 21.1245 315.72 21.3372 316.674 21.7627C317.627 22.1882 318.361 22.8044 318.874 23.6113C319.388 24.4182 319.644 25.3792 319.644 26.4942C319.644 27.6092 319.388 28.5702 318.874 29.3771C318.361 30.1693 317.627 30.7782 316.674 31.2036C315.72 31.6291 314.568 31.8418 313.218 31.8418H308.421L309.411 30.8295V36.5293H307.211ZM317.51 36.5293L313.593 30.9396H315.947L319.909 36.5293H317.51ZM309.411 31.0496L308.421 29.9713H313.152C314.561 29.9713 315.625 29.6705 316.343 29.069C317.077 28.4528 317.444 27.5945 317.444 26.4942C317.444 25.3938 317.077 24.5429 316.343 23.9414C315.625 23.3399 314.561 23.0391 313.152 23.0391H308.421L309.411 21.9388V31.0496ZM325.203 27.7706H333.125V29.6412H325.203V27.7706ZM325.401 34.6147H334.379V36.5293H323.2V21.1245H334.071V23.0391H325.401V34.6147ZM337.943 36.5293V21.1245H339.747L346.658 32.7661H345.689L352.511 21.1245H354.316L354.338 36.5293H352.225L352.203 24.4475H352.709L346.636 34.6587H345.623L339.505 24.4475H340.055V36.5293H337.943ZM358.961 36.5293V21.1245H361.162V36.5293H358.961ZM372.156 36.7054C370.131 36.7054 368.539 36.1258 367.38 34.9668C366.221 33.8078 365.642 32.1133 365.642 29.8832V21.1245H367.842V29.7952C367.842 31.5117 368.216 32.7661 368.965 33.5584C369.728 34.3506 370.799 34.7467 372.178 34.7467C373.571 34.7467 374.642 34.3506 375.391 33.5584C376.154 32.7661 376.535 31.5117 376.535 29.7952V21.1245H378.67V29.8832C378.67 32.1133 378.09 33.8078 376.931 34.9668C375.787 36.1258 374.195 36.7054 372.156 36.7054ZM383.181 36.5293V21.1245H384.986L391.896 32.7661H390.928L397.75 21.1245H399.555L399.577 36.5293H397.464L397.442 24.4475H397.948L391.874 34.6587H390.862L384.744 24.4475H385.294V36.5293H383.181ZM295.087 62.5293L289.937 47.1245H292.204L296.935 61.3409H295.791L300.698 47.1245H302.723L307.521 61.3409H306.42L311.218 47.1245H313.308L308.159 62.5293H305.848L301.359 49.3472H301.953L297.441 62.5293H295.087ZM322.804 62.7054C321.63 62.7054 320.537 62.5073 319.525 62.1112C318.527 61.715 317.662 61.1649 316.928 60.4607C316.195 59.7418 315.623 58.9055 315.212 57.9519C314.801 56.9982 314.596 55.9566 314.596 54.8269C314.596 53.6972 314.801 52.6556 315.212 51.7019C315.623 50.7483 316.195 49.9194 316.928 49.2152C317.662 48.4963 318.527 47.9388 319.525 47.5426C320.523 47.1465 321.616 46.9484 322.804 46.9484C323.978 46.9484 325.056 47.1465 326.039 47.5426C327.037 47.9241 327.902 48.4743 328.636 49.1931C329.384 49.8974 329.956 50.7263 330.353 51.6799C330.763 52.6335 330.969 53.6825 330.969 54.8269C330.969 55.9713 330.763 57.0202 330.353 57.9739C329.956 58.9275 329.384 59.7638 328.636 60.4827C327.902 61.1869 327.037 61.7371 326.039 62.1332C325.056 62.5146 323.978 62.7054 322.804 62.7054ZM322.804 60.7467C323.655 60.7467 324.44 60.6 325.159 60.3066C325.892 60.0132 326.523 59.6024 327.051 59.0742C327.594 58.5314 328.012 57.9005 328.306 57.1816C328.614 56.4627 328.768 55.6778 328.768 54.8269C328.768 53.976 328.614 53.1911 328.306 52.4722C328.012 51.7533 327.594 51.1297 327.051 50.6016C326.523 50.0587 325.892 49.6406 325.159 49.3472C324.44 49.0538 323.655 48.9071 322.804 48.9071C321.939 48.9071 321.139 49.0538 320.405 49.3472C319.687 49.6406 319.056 50.0587 318.513 50.6016C317.97 51.1297 317.545 51.7533 317.236 52.4722C316.943 53.1911 316.796 53.976 316.796 54.8269C316.796 55.6778 316.943 56.4627 317.236 57.1816C317.545 57.9005 317.97 58.5314 318.513 59.0742C319.056 59.6024 319.687 60.0132 320.405 60.3066C321.139 60.6 321.939 60.7467 322.804 60.7467ZM341.286 62.7054C340.113 62.7054 339.02 62.5073 338.007 62.1112C337.01 61.715 336.144 61.1649 335.411 60.4607C334.677 59.7418 334.105 58.9055 333.694 57.9519C333.283 56.9982 333.078 55.9566 333.078 54.8269C333.078 53.6972 333.283 52.6556 333.694 51.7019C334.105 50.7483 334.677 49.9194 335.411 49.2152C336.144 48.4963 337.01 47.9388 338.007 47.5426C339.005 47.1465 340.098 46.9484 341.286 46.9484C342.46 46.9484 343.539 47.1465 344.521 47.5426C345.519 47.9241 346.385 48.4743 347.118 49.1931C347.867 49.8974 348.439 50.7263 348.835 51.6799C349.246 52.6335 349.451 53.6825 349.451 54.8269C349.451 55.9713 349.246 57.0202 348.835 57.9739C348.439 58.9275 347.867 59.7638 347.118 60.4827C346.385 61.1869 345.519 61.7371 344.521 62.1332C343.539 62.5146 342.46 62.7054 341.286 62.7054ZM341.286 60.7467C342.137 60.7467 342.922 60.6 343.641 60.3066C344.375 60.0132 345.006 59.6024 345.534 59.0742C346.077 58.5314 346.495 57.9005 346.788 57.1816C347.096 56.4627 347.25 55.6778 347.25 54.8269C347.25 53.976 347.096 53.1911 346.788 52.4722C346.495 51.7533 346.077 51.1297 345.534 50.6016C345.006 50.0587 344.375 49.6406 343.641 49.3472C342.922 49.0538 342.137 48.9071 341.286 48.9071C340.421 48.9071 339.621 49.0538 338.888 49.3472C338.169 49.6406 337.538 50.0587 336.995 50.6016C336.452 51.1297 336.027 51.7533 335.719 52.4722C335.425 53.1911 335.279 53.976 335.279 54.8269C335.279 55.6778 335.425 56.4627 335.719 57.1816C336.027 57.9005 336.452 58.5314 336.995 59.0742C337.538 59.6024 338.169 60.0132 338.888 60.3066C339.621 60.6 340.421 60.7467 341.286 60.7467ZM352.815 62.5293V47.1245H359.307C360.95 47.1245 362.395 47.4473 363.642 48.0928C364.904 48.7383 365.879 49.6406 366.569 50.7996C367.273 51.9587 367.625 53.3011 367.625 54.8269C367.625 56.3527 367.273 57.6951 366.569 58.8542C365.879 60.0132 364.904 60.9155 363.642 61.561C362.395 62.2065 360.95 62.5293 359.307 62.5293H352.815ZM355.015 60.6147H359.175C360.451 60.6147 361.551 60.3726 362.476 59.8885C363.415 59.4043 364.141 58.7294 364.654 57.8638C365.168 56.9836 365.425 55.9713 365.425 54.8269C365.425 53.6679 365.168 52.6556 364.654 51.79C364.141 50.9244 363.415 50.2495 362.476 49.7653C361.551 49.2812 360.451 49.0391 359.175 49.0391H355.015V60.6147ZM376.906 62.5293V47.1245H383.398C385.041 47.1245 386.486 47.4473 387.733 48.0928C388.995 48.7383 389.971 49.6406 390.66 50.7996C391.365 51.9587 391.717 53.3011 391.717 54.8269C391.717 56.3527 391.365 57.6951 390.66 58.8542C389.971 60.0132 388.995 60.9155 387.733 61.561C386.486 62.2065 385.041 62.5293 383.398 62.5293H376.906ZM379.107 60.6147H383.266C384.542 60.6147 385.643 60.3726 386.567 59.8885C387.506 59.4043 388.232 58.7294 388.746 57.8638C389.259 56.9836 389.516 55.9713 389.516 54.8269C389.516 53.6679 389.259 52.6556 388.746 51.79C388.232 50.9244 387.506 50.2495 386.567 49.7653C385.643 49.2812 384.542 49.0391 383.266 49.0391H379.107V60.6147ZM397.09 53.7706H405.013V55.6412H397.09V53.7706ZM397.288 60.6147H406.267V62.5293H395.088V47.1245H405.959V49.0391H397.288V60.6147ZM416.697 62.7054C415.523 62.7054 414.438 62.5146 413.44 62.1332C412.457 61.7371 411.599 61.1869 410.865 60.4827C410.146 59.7638 409.582 58.9275 409.171 57.9739C408.76 57.0202 408.555 55.9713 408.555 54.8269C408.555 53.6825 408.76 52.6335 409.171 51.6799C409.582 50.7263 410.154 49.8974 410.887 49.1931C411.621 48.4743 412.479 47.9241 413.462 47.5426C414.46 47.1465 415.545 46.9484 416.719 46.9484C417.907 46.9484 419 47.1538 419.998 47.5646C421.01 47.9608 421.869 48.5549 422.573 49.3472L421.142 50.7336C420.556 50.1174 419.895 49.6626 419.162 49.3692C418.428 49.0611 417.643 48.9071 416.807 48.9071C415.942 48.9071 415.135 49.0538 414.386 49.3472C413.653 49.6406 413.015 50.0514 412.472 50.5796C411.929 51.1077 411.503 51.7386 411.195 52.4722C410.902 53.1911 410.755 53.976 410.755 54.8269C410.755 55.6778 410.902 56.4701 411.195 57.2036C411.503 57.9225 411.929 58.5461 412.472 59.0742C413.015 59.6024 413.653 60.0132 414.386 60.3066C415.135 60.6 415.942 60.7467 416.807 60.7467C417.643 60.7467 418.428 60.6 419.162 60.3066C419.895 59.9985 420.556 59.529 421.142 58.8982L422.573 60.2846C421.869 61.0768 421.01 61.6784 419.998 62.0892C419 62.5 417.9 62.7054 416.697 62.7054ZM432.344 62.7054C431.17 62.7054 430.077 62.5073 429.065 62.1112C428.067 61.715 427.202 61.1649 426.468 60.4607C425.735 59.7418 425.163 58.9055 424.752 57.9519C424.341 56.9982 424.136 55.9566 424.136 54.8269C424.136 53.6972 424.341 52.6556 424.752 51.7019C425.163 50.7483 425.735 49.9194 426.468 49.2152C427.202 48.4963 428.067 47.9388 429.065 47.5426C430.063 47.1465 431.156 46.9484 432.344 46.9484C433.518 46.9484 434.596 47.1465 435.579 47.5426C436.577 47.9241 437.442 48.4743 438.176 49.1931C438.924 49.8974 439.496 50.7263 439.892 51.6799C440.303 52.6335 440.509 53.6825 440.509 54.8269C440.509 55.9713 440.303 57.0202 439.892 57.9739C439.496 58.9275 438.924 59.7638 438.176 60.4827C437.442 61.1869 436.577 61.7371 435.579 62.1332C434.596 62.5146 433.518 62.7054 432.344 62.7054ZM432.344 60.7467C433.195 60.7467 433.98 60.6 434.699 60.3066C435.432 60.0132 436.063 59.6024 436.591 59.0742C437.134 58.5314 437.552 57.9005 437.846 57.1816C438.154 56.4627 438.308 55.6778 438.308 54.8269C438.308 53.976 438.154 53.1911 437.846 52.4722C437.552 51.7533 437.134 51.1297 436.591 50.6016C436.063 50.0587 435.432 49.6406 434.699 49.3472C433.98 49.0538 433.195 48.9071 432.344 48.9071C431.479 48.9071 430.679 49.0538 429.945 49.3472C429.226 49.6406 428.596 50.0587 428.053 50.6016C427.51 51.1297 427.084 51.7533 426.776 52.4722C426.483 53.1911 426.336 53.976 426.336 54.8269C426.336 55.6778 426.483 56.4627 426.776 57.1816C427.084 57.9005 427.51 58.5314 428.053 59.0742C428.596 59.6024 429.226 60.0132 429.945 60.3066C430.679 60.6 431.479 60.7467 432.344 60.7467ZM443.872 62.5293V47.1245H449.88C451.23 47.1245 452.382 47.3372 453.335 47.7627C454.289 48.1882 455.022 48.8044 455.536 49.6113C456.049 50.4182 456.306 51.3792 456.306 52.4942C456.306 53.6092 456.049 54.5702 455.536 55.3771C455.022 56.1693 454.289 56.7782 453.335 57.2036C452.382 57.6291 451.23 57.8418 449.88 57.8418H445.083L446.073 56.8295V62.5293H443.872ZM454.171 62.5293L450.254 56.9396H452.609L456.57 62.5293H454.171ZM446.073 57.0496L445.083 55.9713H449.814C451.223 55.9713 452.286 55.6705 453.005 55.069C453.739 54.4528 454.105 53.5945 454.105 52.4942C454.105 51.3938 453.739 50.5429 453.005 49.9414C452.286 49.3399 451.223 49.0391 449.814 49.0391H445.083L446.073 47.9388V57.0496Z" fill="url(#paint1_linear_118_364)"/>
<path d="M291.544 36.5293V21.1245H297.551C298.901 21.1245 300.053 21.3372 301.007 21.7627C301.96 22.1882 302.694 22.8044 303.207 23.6113C303.721 24.4182 303.977 25.3792 303.977 26.4942C303.977 27.6092 303.721 28.5702 303.207 29.3771C302.694 30.1693 301.96 30.7855 301.007 31.2256C300.053 31.6511 298.901 31.8638 297.551 31.8638H292.754L293.744 30.8295V36.5293H291.544ZM293.744 31.0496L292.754 29.9492H297.485C298.894 29.9492 299.958 29.6485 300.676 29.047C301.41 28.4454 301.777 27.5945 301.777 26.4942C301.777 25.3938 301.41 24.5429 300.676 23.9414C299.958 23.3399 298.894 23.0391 297.485 23.0391H292.754L293.744 21.9388V31.0496ZM307.211 36.5293V21.1245H313.218C314.568 21.1245 315.72 21.3372 316.674 21.7627C317.627 22.1882 318.361 22.8044 318.874 23.6113C319.388 24.4182 319.644 25.3792 319.644 26.4942C319.644 27.6092 319.388 28.5702 318.874 29.3771C318.361 30.1693 317.627 30.7782 316.674 31.2036C315.72 31.6291 314.568 31.8418 313.218 31.8418H308.421L309.411 30.8295V36.5293H307.211ZM317.51 36.5293L313.593 30.9396H315.947L319.909 36.5293H317.51ZM309.411 31.0496L308.421 29.9713H313.152C314.561 29.9713 315.625 29.6705 316.343 29.069C317.077 28.4528 317.444 27.5945 317.444 26.4942C317.444 25.3938 317.077 24.5429 316.343 23.9414C315.625 23.3399 314.561 23.0391 313.152 23.0391H308.421L309.411 21.9388V31.0496ZM325.203 27.7706H333.125V29.6412H325.203V27.7706ZM325.401 34.6147H334.379V36.5293H323.2V21.1245H334.071V23.0391H325.401V34.6147ZM337.943 36.5293V21.1245H339.747L346.658 32.7661H345.689L352.511 21.1245H354.316L354.338 36.5293H352.225L352.203 24.4475H352.709L346.636 34.6587H345.623L339.505 24.4475H340.055V36.5293H337.943ZM358.961 36.5293V21.1245H361.162V36.5293H358.961ZM372.156 36.7054C370.131 36.7054 368.539 36.1258 367.38 34.9668C366.221 33.8078 365.642 32.1133 365.642 29.8832V21.1245H367.842V29.7952C367.842 31.5117 368.216 32.7661 368.965 33.5584C369.728 34.3506 370.799 34.7467 372.178 34.7467C373.571 34.7467 374.642 34.3506 375.391 33.5584C376.154 32.7661 376.535 31.5117 376.535 29.7952V21.1245H378.67V29.8832C378.67 32.1133 378.09 33.8078 376.931 34.9668C375.787 36.1258 374.195 36.7054 372.156 36.7054ZM383.181 36.5293V21.1245H384.986L391.896 32.7661H390.928L397.75 21.1245H399.555L399.577 36.5293H397.464L397.442 24.4475H397.948L391.874 34.6587H390.862L384.744 24.4475H385.294V36.5293H383.181ZM295.087 62.5293L289.937 47.1245H292.204L296.935 61.3409H295.791L300.698 47.1245H302.723L307.521 61.3409H306.42L311.218 47.1245H313.308L308.159 62.5293H305.848L301.359 49.3472H301.953L297.441 62.5293H295.087ZM322.804 62.7054C321.63 62.7054 320.537 62.5073 319.525 62.1112C318.527 61.715 317.662 61.1649 316.928 60.4607C316.195 59.7418 315.623 58.9055 315.212 57.9519C314.801 56.9982 314.596 55.9566 314.596 54.8269C314.596 53.6972 314.801 52.6556 315.212 51.7019C315.623 50.7483 316.195 49.9194 316.928 49.2152C317.662 48.4963 318.527 47.9388 319.525 47.5426C320.523 47.1465 321.616 46.9484 322.804 46.9484C323.978 46.9484 325.056 47.1465 326.039 47.5426C327.037 47.9241 327.902 48.4743 328.636 49.1931C329.384 49.8974 329.956 50.7263 330.353 51.6799C330.763 52.6335 330.969 53.6825 330.969 54.8269C330.969 55.9713 330.763 57.0202 330.353 57.9739C329.956 58.9275 329.384 59.7638 328.636 60.4827C327.902 61.1869 327.037 61.7371 326.039 62.1332C325.056 62.5146 323.978 62.7054 322.804 62.7054ZM322.804 60.7467C323.655 60.7467 324.44 60.6 325.159 60.3066C325.892 60.0132 326.523 59.6024 327.051 59.0742C327.594 58.5314 328.012 57.9005 328.306 57.1816C328.614 56.4627 328.768 55.6778 328.768 54.8269C328.768 53.976 328.614 53.1911 328.306 52.4722C328.012 51.7533 327.594 51.1297 327.051 50.6016C326.523 50.0587 325.892 49.6406 325.159 49.3472C324.44 49.0538 323.655 48.9071 322.804 48.9071C321.939 48.9071 321.139 49.0538 320.405 49.3472C319.687 49.6406 319.056 50.0587 318.513 50.6016C317.97 51.1297 317.545 51.7533 317.236 52.4722C316.943 53.1911 316.796 53.976 316.796 54.8269C316.796 55.6778 316.943 56.4627 317.236 57.1816C317.545 57.9005 317.97 58.5314 318.513 59.0742C319.056 59.6024 319.687 60.0132 320.405 60.3066C321.139 60.6 321.939 60.7467 322.804 60.7467ZM341.286 62.7054C340.113 62.7054 339.02 62.5073 338.007 62.1112C337.01 61.715 336.144 61.1649 335.411 60.4607C334.677 59.7418 334.105 58.9055 333.694 57.9519C333.283 56.9982 333.078 55.9566 333.078 54.8269C333.078 53.6972 333.283 52.6556 333.694 51.7019C334.105 50.7483 334.677 49.9194 335.411 49.2152C336.144 48.4963 337.01 47.9388 338.007 47.5426C339.005 47.1465 340.098 46.9484 341.286 46.9484C342.46 46.9484 343.539 47.1465 344.521 47.5426C345.519 47.9241 346.385 48.4743 347.118 49.1931C347.867 49.8974 348.439 50.7263 348.835 51.6799C349.246 52.6335 349.451 53.6825 349.451 54.8269C349.451 55.9713 349.246 57.0202 348.835 57.9739C348.439 58.9275 347.867 59.7638 347.118 60.4827C346.385 61.1869 345.519 61.7371 344.521 62.1332C343.539 62.5146 342.46 62.7054 341.286 62.7054ZM341.286 60.7467C342.137 60.7467 342.922 60.6 343.641 60.3066C344.375 60.0132 345.006 59.6024 345.534 59.0742C346.077 58.5314 346.495 57.9005 346.788 57.1816C347.096 56.4627 347.25 55.6778 347.25 54.8269C347.25 53.976 347.096 53.1911 346.788 52.4722C346.495 51.7533 346.077 51.1297 345.534 50.6016C345.006 50.0587 344.375 49.6406 343.641 49.3472C342.922 49.0538 342.137 48.9071 341.286 48.9071C340.421 48.9071 339.621 49.0538 338.888 49.3472C338.169 49.6406 337.538 50.0587 336.995 50.6016C336.452 51.1297 336.027 51.7533 335.719 52.4722C335.425 53.1911 335.279 53.976 335.279 54.8269C335.279 55.6778 335.425 56.4627 335.719 57.1816C336.027 57.9005 336.452 58.5314 336.995 59.0742C337.538 59.6024 338.169 60.0132 338.888 60.3066C339.621 60.6 340.421 60.7467 341.286 60.7467ZM352.815 62.5293V47.1245H359.307C360.95 47.1245 362.395 47.4473 363.642 48.0928C364.904 48.7383 365.879 49.6406 366.569 50.7996C367.273 51.9587 367.625 53.3011 367.625 54.8269C367.625 56.3527 367.273 57.6951 366.569 58.8542C365.879 60.0132 364.904 60.9155 363.642 61.561C362.395 62.2065 360.95 62.5293 359.307 62.5293H352.815ZM355.015 60.6147H359.175C360.451 60.6147 361.551 60.3726 362.476 59.8885C363.415 59.4043 364.141 58.7294 364.654 57.8638C365.168 56.9836 365.425 55.9713 365.425 54.8269C365.425 53.6679 365.168 52.6556 364.654 51.79C364.141 50.9244 363.415 50.2495 362.476 49.7653C361.551 49.2812 360.451 49.0391 359.175 49.0391H355.015V60.6147ZM376.906 62.5293V47.1245H383.398C385.041 47.1245 386.486 47.4473 387.733 48.0928C388.995 48.7383 389.971 49.6406 390.66 50.7996C391.365 51.9587 391.717 53.3011 391.717 54.8269C391.717 56.3527 391.365 57.6951 390.66 58.8542C389.971 60.0132 388.995 60.9155 387.733 61.561C386.486 62.2065 385.041 62.5293 383.398 62.5293H376.906ZM379.107 60.6147H383.266C384.542 60.6147 385.643 60.3726 386.567 59.8885C387.506 59.4043 388.232 58.7294 388.746 57.8638C389.259 56.9836 389.516 55.9713 389.516 54.8269C389.516 53.6679 389.259 52.6556 388.746 51.79C388.232 50.9244 387.506 50.2495 386.567 49.7653C385.643 49.2812 384.542 49.0391 383.266 49.0391H379.107V60.6147ZM397.09 53.7706H405.013V55.6412H397.09V53.7706ZM397.288 60.6147H406.267V62.5293H395.088V47.1245H405.959V49.0391H397.288V60.6147ZM416.697 62.7054C415.523 62.7054 414.438 62.5146 413.44 62.1332C412.457 61.7371 411.599 61.1869 410.865 60.4827C410.146 59.7638 409.582 58.9275 409.171 57.9739C408.76 57.0202 408.555 55.9713 408.555 54.8269C408.555 53.6825 408.76 52.6335 409.171 51.6799C409.582 50.7263 410.154 49.8974 410.887 49.1931C411.621 48.4743 412.479 47.9241 413.462 47.5426C414.46 47.1465 415.545 46.9484 416.719 46.9484C417.907 46.9484 419 47.1538 419.998 47.5646C421.01 47.9608 421.869 48.5549 422.573 49.3472L421.142 50.7336C420.556 50.1174 419.895 49.6626 419.162 49.3692C418.428 49.0611 417.643 48.9071 416.807 48.9071C415.942 48.9071 415.135 49.0538 414.386 49.3472C413.653 49.6406 413.015 50.0514 412.472 50.5796C411.929 51.1077 411.503 51.7386 411.195 52.4722C410.902 53.1911 410.755 53.976 410.755 54.8269C410.755 55.6778 410.902 56.4701 411.195 57.2036C411.503 57.9225 411.929 58.5461 412.472 59.0742C413.015 59.6024 413.653 60.0132 414.386 60.3066C415.135 60.6 415.942 60.7467 416.807 60.7467C417.643 60.7467 418.428 60.6 419.162 60.3066C419.895 59.9985 420.556 59.529 421.142 58.8982L422.573 60.2846C421.869 61.0768 421.01 61.6784 419.998 62.0892C419 62.5 417.9 62.7054 416.697 62.7054ZM432.344 62.7054C431.17 62.7054 430.077 62.5073 429.065 62.1112C428.067 61.715 427.202 61.1649 426.468 60.4607C425.735 59.7418 425.163 58.9055 424.752 57.9519C424.341 56.9982 424.136 55.9566 424.136 54.8269C424.136 53.6972 424.341 52.6556 424.752 51.7019C425.163 50.7483 425.735 49.9194 426.468 49.2152C427.202 48.4963 428.067 47.9388 429.065 47.5426C430.063 47.1465 431.156 46.9484 432.344 46.9484C433.518 46.9484 434.596 47.1465 435.579 47.5426C436.577 47.9241 437.442 48.4743 438.176 49.1931C438.924 49.8974 439.496 50.7263 439.892 51.6799C440.303 52.6335 440.509 53.6825 440.509 54.8269C440.509 55.9713 440.303 57.0202 439.892 57.9739C439.496 58.9275 438.924 59.7638 438.176 60.4827C437.442 61.1869 436.577 61.7371 435.579 62.1332C434.596 62.5146 433.518 62.7054 432.344 62.7054ZM432.344 60.7467C433.195 60.7467 433.98 60.6 434.699 60.3066C435.432 60.0132 436.063 59.6024 436.591 59.0742C437.134 58.5314 437.552 57.9005 437.846 57.1816C438.154 56.4627 438.308 55.6778 438.308 54.8269C438.308 53.976 438.154 53.1911 437.846 52.4722C437.552 51.7533 437.134 51.1297 436.591 50.6016C436.063 50.0587 435.432 49.6406 434.699 49.3472C433.98 49.0538 433.195 48.9071 432.344 48.9071C431.479 48.9071 430.679 49.0538 429.945 49.3472C429.226 49.6406 428.596 50.0587 428.053 50.6016C427.51 51.1297 427.084 51.7533 426.776 52.4722C426.483 53.1911 426.336 53.976 426.336 54.8269C426.336 55.6778 426.483 56.4627 426.776 57.1816C427.084 57.9005 427.51 58.5314 428.053 59.0742C428.596 59.6024 429.226 60.0132 429.945 60.3066C430.679 60.6 431.479 60.7467 432.344 60.7467ZM443.872 62.5293V47.1245H449.88C451.23 47.1245 452.382 47.3372 453.335 47.7627C454.289 48.1882 455.022 48.8044 455.536 49.6113C456.049 50.4182 456.306 51.3792 456.306 52.4942C456.306 53.6092 456.049 54.5702 455.536 55.3771C455.022 56.1693 454.289 56.7782 453.335 57.2036C452.382 57.6291 451.23 57.8418 449.88 57.8418H445.083L446.073 56.8295V62.5293H443.872ZM454.171 62.5293L450.254 56.9396H452.609L456.57 62.5293H454.171ZM446.073 57.0496L445.083 55.9713H449.814C451.223 55.9713 452.286 55.6705 453.005 55.069C453.739 54.4528 454.105 53.5945 454.105 52.4942C454.105 51.3938 453.739 50.5429 453.005 49.9414C452.286 49.3399 451.223 49.0391 449.814 49.0391H445.083L446.073 47.9388V57.0496Z" fill="#E8D6AC"/>
<defs>
<linearGradient id="paint0_linear_118_364" x1="253.603" y1="64.7353" x2="116.133" y2="-89.9759" gradientUnits="userSpaceOnUse">
<stop stop-color="#E8D6AC"/>
<stop offset="1" stop-color="#987C3C"/>
</linearGradient>
<linearGradient id="paint1_linear_118_364" x1="458.233" y1="67.5293" x2="347.297" y2="-36.0461" gradientUnits="userSpaceOnUse">
<stop stop-color="#E8D6AC"/>
<stop offset="1" stop-color="#987C3C"/>
</linearGradient>
</defs>
</svg>
