<svg width="345" height="34" viewBox="0 0 345 34" fill="none" xmlns="http://www.w3.org/2000/svg">
<path d="M139.145 18V10.65H140.184V16.32L144.531 10.65H145.497V18H144.468V12.3405L140.111 18H139.145ZM147.621 18V12.435H148.629V14.7975H151.8V12.435H152.808V18H151.8V15.669H148.629V18H147.621ZM155.87 18V13.0545L156.122 13.317H153.833V12.435H158.915V13.317H156.637L156.878 13.0545V18H155.87ZM162.178 18.063C161.583 18.063 161.058 17.9405 160.603 17.6955C160.155 17.4505 159.805 17.1145 159.553 16.6875C159.308 16.2605 159.185 15.7705 159.185 15.2175C159.185 14.6645 159.304 14.1745 159.542 13.7475C159.787 13.3205 160.12 12.988 160.54 12.75C160.967 12.505 161.446 12.3825 161.978 12.3825C162.517 12.3825 162.993 12.5015 163.406 12.7395C163.819 12.9775 164.141 13.3135 164.372 13.7475C164.61 14.1745 164.729 14.675 164.729 15.249C164.729 15.291 164.726 15.34 164.719 15.396C164.719 15.452 164.715 15.5045 164.708 15.5535H159.973V14.829H164.183L163.774 15.081C163.781 14.724 163.707 14.4055 163.553 14.1255C163.399 13.8455 163.186 13.6285 162.913 13.4745C162.647 13.3135 162.335 13.233 161.978 13.233C161.628 13.233 161.317 13.3135 161.044 13.4745C160.771 13.6285 160.557 13.849 160.403 14.136C160.249 14.416 160.172 14.738 160.172 15.102V15.27C160.172 15.641 160.256 15.9735 160.424 16.2675C160.599 16.5545 160.841 16.7785 161.149 16.9395C161.457 17.1005 161.81 17.181 162.209 17.181C162.538 17.181 162.836 17.125 163.102 17.013C163.375 16.901 163.613 16.733 163.816 16.509L164.372 17.16C164.12 17.454 163.805 17.678 163.427 17.832C163.056 17.986 162.64 18.063 162.178 18.063ZM169.243 18.063C168.781 18.063 168.358 17.958 167.973 17.748C167.595 17.531 167.29 17.2125 167.059 16.7925C166.835 16.3725 166.723 15.8475 166.723 15.2175C166.723 14.5875 166.832 14.0625 167.049 13.6425C167.273 13.2225 167.574 12.9075 167.952 12.6975C168.337 12.4875 168.767 12.3825 169.243 12.3825C169.789 12.3825 170.272 12.5015 170.692 12.7395C171.112 12.9775 171.445 13.31 171.69 13.737C171.935 14.157 172.057 14.6505 172.057 15.2175C172.057 15.7845 171.935 16.2815 171.69 16.7085C171.445 17.1355 171.112 17.468 170.692 17.706C170.272 17.944 169.789 18.063 169.243 18.063ZM166.293 20.037V12.435H167.259V13.9365L167.196 15.228L167.301 16.5195V20.037H166.293ZM169.159 17.181C169.516 17.181 169.835 17.1005 170.115 16.9395C170.402 16.7785 170.626 16.551 170.787 16.257C170.955 15.956 171.039 15.6095 171.039 15.2175C171.039 14.8185 170.955 14.4755 170.787 14.1885C170.626 13.8945 170.402 13.667 170.115 13.506C169.835 13.345 169.516 13.2645 169.159 13.2645C168.809 13.2645 168.491 13.345 168.204 13.506C167.924 13.667 167.7 13.8945 167.532 14.1885C167.371 14.4755 167.29 14.8185 167.29 15.2175C167.29 15.6095 167.371 15.956 167.532 16.257C167.7 16.551 167.924 16.7785 168.204 16.9395C168.491 17.1005 168.809 17.181 169.159 17.181ZM176.094 14.325C176.801 14.332 177.34 14.493 177.711 14.808C178.082 15.123 178.268 15.5675 178.268 16.1415C178.268 16.7435 178.065 17.209 177.659 17.538C177.253 17.86 176.679 18.0175 175.937 18.0105L173.522 18V12.435H174.53V14.3145L176.094 14.325ZM175.853 17.244C176.308 17.251 176.651 17.16 176.882 16.971C177.12 16.782 177.239 16.502 177.239 16.131C177.239 15.767 177.123 15.501 176.892 15.333C176.661 15.165 176.315 15.0775 175.853 15.0705L174.53 15.0495V17.2335L175.853 17.244ZM182.039 18.063C181.444 18.063 180.919 17.9405 180.464 17.6955C180.016 17.4505 179.666 17.1145 179.414 16.6875C179.169 16.2605 179.047 15.7705 179.047 15.2175C179.047 14.6645 179.166 14.1745 179.404 13.7475C179.649 13.3205 179.981 12.988 180.401 12.75C180.828 12.505 181.308 12.3825 181.84 12.3825C182.379 12.3825 182.855 12.5015 183.268 12.7395C183.681 12.9775 184.003 13.3135 184.234 13.7475C184.472 14.1745 184.591 14.675 184.591 15.249C184.591 15.291 184.587 15.34 184.58 15.396C184.58 15.452 184.577 15.5045 184.57 15.5535H179.834V14.829H184.045L183.635 15.081C183.642 14.724 183.569 14.4055 183.415 14.1255C183.261 13.8455 183.047 13.6285 182.774 13.4745C182.508 13.3135 182.197 13.233 181.84 13.233C181.49 13.233 181.178 13.3135 180.905 13.4745C180.632 13.6285 180.419 13.849 180.265 14.136C180.111 14.416 180.034 14.738 180.034 15.102V15.27C180.034 15.641 180.118 15.9735 180.286 16.2675C180.461 16.5545 180.702 16.7785 181.01 16.9395C181.318 17.1005 181.672 17.181 182.071 17.181C182.4 17.181 182.697 17.125 182.963 17.013C183.236 16.901 183.474 16.733 183.677 16.509L184.234 17.16C183.982 17.454 183.667 17.678 183.289 17.832C182.918 17.986 182.501 18.063 182.039 18.063ZM189.105 18.063C188.643 18.063 188.22 17.958 187.835 17.748C187.457 17.531 187.152 17.2125 186.921 16.7925C186.697 16.3725 186.585 15.8475 186.585 15.2175C186.585 14.5875 186.694 14.0625 186.911 13.6425C187.135 13.2225 187.436 12.9075 187.814 12.6975C188.199 12.4875 188.629 12.3825 189.105 12.3825C189.651 12.3825 190.134 12.5015 190.554 12.7395C190.974 12.9775 191.307 13.31 191.552 13.737C191.797 14.157 191.919 14.6505 191.919 15.2175C191.919 15.7845 191.797 16.2815 191.552 16.7085C191.307 17.1355 190.974 17.468 190.554 17.706C190.134 17.944 189.651 18.063 189.105 18.063ZM186.155 20.037V12.435H187.121V13.9365L187.058 15.228L187.163 16.5195V20.037H186.155ZM189.021 17.181C189.378 17.181 189.697 17.1005 189.977 16.9395C190.264 16.7785 190.488 16.551 190.649 16.257C190.817 15.956 190.901 15.6095 190.901 15.2175C190.901 14.8185 190.817 14.4755 190.649 14.1885C190.488 13.8945 190.264 13.667 189.977 13.506C189.697 13.345 189.378 13.2645 189.021 13.2645C188.671 13.2645 188.353 13.345 188.066 13.506C187.786 13.667 187.562 13.8945 187.394 14.1885C187.233 14.4755 187.152 14.8185 187.152 15.2175C187.152 15.6095 187.233 15.956 187.394 16.257C187.562 16.551 187.786 16.7785 188.066 16.9395C188.353 17.1005 188.671 17.181 189.021 17.181ZM193.384 18V12.435H194.392V14.7975H197.563V12.435H198.571V18H197.563V15.669H194.392V18H193.384ZM202.914 18.063C202.354 18.063 201.857 17.9405 201.423 17.6955C200.989 17.4505 200.646 17.1145 200.394 16.6875C200.142 16.2535 200.016 15.7635 200.016 15.2175C200.016 14.6645 200.142 14.1745 200.394 13.7475C200.646 13.3205 200.989 12.988 201.423 12.75C201.857 12.505 202.354 12.3825 202.914 12.3825C203.467 12.3825 203.961 12.505 204.395 12.75C204.836 12.988 205.179 13.3205 205.424 13.7475C205.676 14.1675 205.802 14.6575 205.802 15.2175C205.802 15.7705 205.676 16.2605 205.424 16.6875C205.179 17.1145 204.836 17.4505 204.395 17.6955C203.961 17.9405 203.467 18.063 202.914 18.063ZM202.914 17.181C203.271 17.181 203.59 17.1005 203.87 16.9395C204.157 16.7785 204.381 16.551 204.542 16.257C204.703 15.956 204.783 15.6095 204.783 15.2175C204.783 14.8185 204.703 14.4755 204.542 14.1885C204.381 13.8945 204.157 13.667 203.87 13.506C203.59 13.345 203.271 13.2645 202.914 13.2645C202.557 13.2645 202.239 13.345 201.959 13.506C201.679 13.667 201.455 13.8945 201.287 14.1885C201.119 14.4755 201.035 14.8185 201.035 15.2175C201.035 15.6095 201.119 15.956 201.287 16.257C201.455 16.551 201.679 16.7785 201.959 16.9395C202.239 17.1005 202.557 17.181 202.914 17.181ZM209.735 18.063C209.14 18.063 208.615 17.9405 208.16 17.6955C207.712 17.4505 207.362 17.1145 207.11 16.6875C206.865 16.2605 206.743 15.7705 206.743 15.2175C206.743 14.6645 206.862 14.1745 207.1 13.7475C207.345 13.3205 207.677 12.988 208.097 12.75C208.524 12.505 209.004 12.3825 209.536 12.3825C210.075 12.3825 210.551 12.5015 210.964 12.7395C211.377 12.9775 211.699 13.3135 211.93 13.7475C212.168 14.1745 212.287 14.675 212.287 15.249C212.287 15.291 212.283 15.34 212.276 15.396C212.276 15.452 212.273 15.5045 212.266 15.5535H207.53V14.829H211.741L211.331 15.081C211.338 14.724 211.265 14.4055 211.111 14.1255C210.957 13.8455 210.743 13.6285 210.47 13.4745C210.204 13.3135 209.893 13.233 209.536 13.233C209.186 13.233 208.874 13.3135 208.601 13.4745C208.328 13.6285 208.115 13.849 207.961 14.136C207.807 14.416 207.73 14.738 207.73 15.102V15.27C207.73 15.641 207.814 15.9735 207.982 16.2675C208.157 16.5545 208.398 16.7785 208.706 16.9395C209.014 17.1005 209.368 17.181 209.767 17.181C210.096 17.181 210.393 17.125 210.659 17.013C210.932 16.901 211.17 16.733 211.373 16.509L211.93 17.16C211.678 17.454 211.363 17.678 210.985 17.832C210.614 17.986 210.197 18.063 209.735 18.063ZM220.083 18V16.824L220.03 16.6035V14.598C220.03 14.171 219.904 13.842 219.652 13.611C219.407 13.373 219.036 13.254 218.539 13.254C218.21 13.254 217.888 13.31 217.573 13.422C217.258 13.527 216.992 13.6705 216.775 13.8525L216.355 13.0965C216.642 12.8655 216.985 12.6905 217.384 12.5715C217.79 12.4455 218.214 12.3825 218.655 12.3825C219.418 12.3825 220.006 12.568 220.419 12.939C220.832 13.31 221.038 13.877 221.038 14.64V18H220.083ZM218.256 18.063C217.843 18.063 217.479 17.993 217.164 17.853C216.856 17.713 216.618 17.5205 216.45 17.2755C216.282 17.0235 216.198 16.74 216.198 16.425C216.198 16.124 216.268 15.851 216.408 15.606C216.555 15.361 216.789 15.165 217.111 15.018C217.44 14.871 217.881 14.7975 218.434 14.7975H220.198V15.522H218.476C217.972 15.522 217.633 15.606 217.458 15.774C217.283 15.942 217.195 16.145 217.195 16.383C217.195 16.656 217.304 16.8765 217.521 17.0445C217.738 17.2055 218.039 17.286 218.424 17.286C218.802 17.286 219.131 17.202 219.411 17.034C219.698 16.866 219.904 16.621 220.03 16.299L220.23 16.992C220.097 17.321 219.862 17.5835 219.526 17.7795C219.19 17.9685 218.767 18.063 218.256 18.063ZM223.956 18V13.0545L224.208 13.317H221.919V12.435H227.001V13.317H224.722L224.964 13.0545V18H223.956ZM230.264 18.063C229.669 18.063 229.144 17.9405 228.689 17.6955C228.241 17.4505 227.891 17.1145 227.639 16.6875C227.394 16.2605 227.271 15.7705 227.271 15.2175C227.271 14.6645 227.39 14.1745 227.628 13.7475C227.873 13.3205 228.206 12.988 228.626 12.75C229.053 12.505 229.532 12.3825 230.064 12.3825C230.603 12.3825 231.079 12.5015 231.492 12.7395C231.905 12.9775 232.227 13.3135 232.458 13.7475C232.696 14.1745 232.815 14.675 232.815 15.249C232.815 15.291 232.812 15.34 232.805 15.396C232.805 15.452 232.801 15.5045 232.794 15.5535H228.059V14.829H232.269L231.86 15.081C231.867 14.724 231.793 14.4055 231.639 14.1255C231.485 13.8455 231.272 13.6285 230.999 13.4745C230.733 13.3135 230.421 13.233 230.064 13.233C229.714 13.233 229.403 13.3135 229.13 13.4745C228.857 13.6285 228.643 13.849 228.489 14.136C228.335 14.416 228.258 14.738 228.258 15.102V15.27C228.258 15.641 228.342 15.9735 228.51 16.2675C228.685 16.5545 228.927 16.7785 229.235 16.9395C229.543 17.1005 229.896 17.181 230.295 17.181C230.624 17.181 230.922 17.125 231.188 17.013C231.461 16.901 231.699 16.733 231.902 16.509L232.458 17.16C232.206 17.454 231.891 17.678 231.513 17.832C231.142 17.986 230.726 18.063 230.264 18.063ZM233.363 17.9895L233.426 17.139C233.475 17.146 233.52 17.153 233.562 17.16C233.604 17.167 233.643 17.1705 233.678 17.1705C233.902 17.1705 234.077 17.0935 234.203 16.9395C234.336 16.7855 234.434 16.5825 234.497 16.3305C234.56 16.0715 234.605 15.781 234.633 15.459C234.661 15.137 234.682 14.815 234.696 14.493L234.791 12.435H239.064V18H238.056V13.023L238.298 13.317H235.442L235.673 13.0125L235.599 14.556C235.578 15.046 235.54 15.5045 235.484 15.9315C235.428 16.3585 235.34 16.733 235.221 17.055C235.109 17.377 234.952 17.629 234.749 17.811C234.553 17.993 234.297 18.084 233.982 18.084C233.891 18.084 233.793 18.0735 233.688 18.0525C233.59 18.0385 233.482 18.0175 233.363 17.9895ZM243.586 14.325C244.293 14.332 244.832 14.493 245.203 14.808C245.574 15.123 245.759 15.5675 245.759 16.1415C245.759 16.7435 245.556 17.209 245.15 17.538C244.744 17.86 244.17 18.0175 243.428 18.0105L241.013 18V12.435H242.021V14.3145L243.586 14.325ZM243.344 17.244C243.799 17.251 244.142 17.16 244.373 16.971C244.611 16.782 244.73 16.502 244.73 16.131C244.73 15.767 244.615 15.501 244.384 15.333C244.153 15.165 243.806 15.0775 243.344 15.0705L242.021 15.0495V17.2335L243.344 17.244ZM249.531 18.063C248.936 18.063 248.411 17.9405 247.956 17.6955C247.508 17.4505 247.158 17.1145 246.906 16.6875C246.661 16.2605 246.538 15.7705 246.538 15.2175C246.538 14.6645 246.657 14.1745 246.895 13.7475C247.14 13.3205 247.473 12.988 247.893 12.75C248.32 12.505 248.799 12.3825 249.331 12.3825C249.87 12.3825 250.346 12.5015 250.759 12.7395C251.172 12.9775 251.494 13.3135 251.725 13.7475C251.963 14.1745 252.082 14.675 252.082 15.249C252.082 15.291 252.079 15.34 252.072 15.396C252.072 15.452 252.068 15.5045 252.061 15.5535H247.326V14.829H251.536L251.127 15.081C251.134 14.724 251.06 14.4055 250.906 14.1255C250.752 13.8455 250.539 13.6285 250.266 13.4745C250 13.3135 249.688 13.233 249.331 13.233C248.981 13.233 248.67 13.3135 248.397 13.4745C248.124 13.6285 247.91 13.849 247.756 14.136C247.602 14.416 247.525 14.738 247.525 15.102V15.27C247.525 15.641 247.609 15.9735 247.777 16.2675C247.952 16.5545 248.194 16.7785 248.502 16.9395C248.81 17.1005 249.163 17.181 249.562 17.181C249.891 17.181 250.189 17.125 250.455 17.013C250.728 16.901 250.966 16.733 251.169 16.509L251.725 17.16C251.473 17.454 251.158 17.678 250.78 17.832C250.409 17.986 249.993 18.063 249.531 18.063ZM259.878 18V16.824L259.826 16.6035V14.598C259.826 14.171 259.7 13.842 259.448 13.611C259.203 13.373 258.832 13.254 258.335 13.254C258.006 13.254 257.684 13.31 257.369 13.422C257.054 13.527 256.788 13.6705 256.571 13.8525L256.151 13.0965C256.438 12.8655 256.781 12.6905 257.18 12.5715C257.586 12.4455 258.009 12.3825 258.45 12.3825C259.213 12.3825 259.801 12.568 260.214 12.939C260.627 13.31 260.834 13.877 260.834 14.64V18H259.878ZM258.051 18.063C257.638 18.063 257.274 17.993 256.959 17.853C256.651 17.713 256.413 17.5205 256.245 17.2755C256.077 17.0235 255.993 16.74 255.993 16.425C255.993 16.124 256.063 15.851 256.203 15.606C256.35 15.361 256.585 15.165 256.907 15.018C257.236 14.871 257.677 14.7975 258.23 14.7975H259.994V15.522H258.272C257.768 15.522 257.428 15.606 257.253 15.774C257.078 15.942 256.991 16.145 256.991 16.383C256.991 16.656 257.099 16.8765 257.316 17.0445C257.533 17.2055 257.834 17.286 258.219 17.286C258.597 17.286 258.926 17.202 259.206 17.034C259.493 16.866 259.7 16.621 259.826 16.299L260.025 16.992C259.892 17.321 259.658 17.5835 259.322 17.7795C258.986 17.9685 258.562 18.063 258.051 18.063ZM262.649 18V12.435H265.232C265.883 12.435 266.394 12.561 266.765 12.813C267.143 13.058 267.332 13.408 267.332 13.863C267.332 14.318 267.153 14.6715 266.796 14.9235C266.446 15.1685 265.981 15.291 265.4 15.291L265.557 15.018C266.222 15.018 266.716 15.1405 267.038 15.3855C267.36 15.6305 267.521 15.991 267.521 16.467C267.521 16.95 267.339 17.328 266.975 17.601C266.618 17.867 266.068 18 265.326 18H262.649ZM263.636 17.223H265.253C265.673 17.223 265.988 17.16 266.198 17.034C266.408 16.901 266.513 16.691 266.513 16.404C266.513 16.11 266.415 15.8965 266.219 15.7635C266.03 15.6235 265.729 15.5535 265.316 15.5535H263.636V17.223ZM263.636 14.829H265.148C265.533 14.829 265.823 14.759 266.019 14.619C266.222 14.472 266.324 14.269 266.324 14.01C266.324 13.744 266.222 13.5445 266.019 13.4115C265.823 13.2785 265.533 13.212 265.148 13.212H263.636V14.829ZM270.201 18V13.0545L270.453 13.317H268.164V12.435H273.246V13.317H270.968L271.209 13.0545V18H270.201ZM276.414 18.063C275.854 18.063 275.357 17.9405 274.923 17.6955C274.489 17.4505 274.146 17.1145 273.894 16.6875C273.642 16.2535 273.516 15.7635 273.516 15.2175C273.516 14.6645 273.642 14.1745 273.894 13.7475C274.146 13.3205 274.489 12.988 274.923 12.75C275.357 12.505 275.854 12.3825 276.414 12.3825C276.967 12.3825 277.461 12.505 277.895 12.75C278.336 12.988 278.679 13.3205 278.924 13.7475C279.176 14.1675 279.302 14.6575 279.302 15.2175C279.302 15.7705 279.176 16.2605 278.924 16.6875C278.679 17.1145 278.336 17.4505 277.895 17.6955C277.461 17.9405 276.967 18.063 276.414 18.063ZM276.414 17.181C276.771 17.181 277.09 17.1005 277.37 16.9395C277.657 16.7785 277.881 16.551 278.042 16.257C278.203 15.956 278.283 15.6095 278.283 15.2175C278.283 14.8185 278.203 14.4755 278.042 14.1885C277.881 13.8945 277.657 13.667 277.37 13.506C277.09 13.345 276.771 13.2645 276.414 13.2645C276.057 13.2645 275.739 13.345 275.459 13.506C275.179 13.667 274.955 13.8945 274.787 14.1885C274.619 14.4755 274.535 14.8185 274.535 15.2175C274.535 15.6095 274.619 15.956 274.787 16.257C274.955 16.551 275.179 16.7785 275.459 16.9395C275.739 17.1005 276.057 17.181 276.414 17.181ZM283.708 18.063C283.246 18.063 282.822 17.958 282.437 17.748C282.059 17.531 281.755 17.2125 281.524 16.7925C281.3 16.3725 281.188 15.8475 281.188 15.2175C281.188 14.5875 281.296 14.0625 281.513 13.6425C281.737 13.2225 282.038 12.9075 282.416 12.6975C282.801 12.4875 283.232 12.3825 283.708 12.3825C284.254 12.3825 284.737 12.5015 285.157 12.7395C285.577 12.9775 285.909 13.31 286.154 13.737C286.399 14.157 286.522 14.6505 286.522 15.2175C286.522 15.7845 286.399 16.2815 286.154 16.7085C285.909 17.1355 285.577 17.468 285.157 17.706C284.737 17.944 284.254 18.063 283.708 18.063ZM280.757 20.037V12.435H281.723V13.9365L281.66 15.228L281.765 16.5195V20.037H280.757ZM283.624 17.181C283.981 17.181 284.299 17.1005 284.579 16.9395C284.866 16.7785 285.09 16.551 285.251 16.257C285.419 15.956 285.503 15.6095 285.503 15.2175C285.503 14.8185 285.419 14.4755 285.251 14.1885C285.09 13.8945 284.866 13.667 284.579 13.506C284.299 13.345 283.981 13.2645 283.624 13.2645C283.274 13.2645 282.955 13.345 282.668 13.506C282.388 13.667 282.164 13.8945 281.996 14.1885C281.835 14.4755 281.755 14.8185 281.755 15.2175C281.755 15.6095 281.835 15.956 281.996 16.257C282.164 16.551 282.388 16.7785 282.668 16.9395C282.955 17.1005 283.274 17.181 283.624 17.181ZM290.412 18.063C289.845 18.063 289.337 17.9405 288.889 17.6955C288.448 17.4505 288.102 17.1145 287.85 16.6875C287.598 16.2605 287.472 15.7705 287.472 15.2175C287.472 14.6645 287.598 14.1745 287.85 13.7475C288.102 13.3205 288.448 12.988 288.889 12.75C289.337 12.505 289.845 12.3825 290.412 12.3825C290.916 12.3825 291.364 12.484 291.756 12.687C292.155 12.883 292.463 13.177 292.68 13.569L291.913 14.0625C291.731 13.7895 291.507 13.59 291.241 13.464C290.982 13.331 290.702 13.2645 290.401 13.2645C290.037 13.2645 289.712 13.345 289.425 13.506C289.138 13.667 288.91 13.8945 288.742 14.1885C288.574 14.4755 288.49 14.8185 288.49 15.2175C288.49 15.6165 288.574 15.963 288.742 16.257C288.91 16.551 289.138 16.7785 289.425 16.9395C289.712 17.1005 290.037 17.181 290.401 17.181C290.702 17.181 290.982 17.118 291.241 16.992C291.507 16.859 291.731 16.656 291.913 16.383L292.68 16.866C292.463 17.251 292.155 17.5485 291.756 17.7585C291.364 17.9615 290.916 18.063 290.412 18.063ZM298.017 18L295.864 15.291L296.694 14.787L299.203 18H298.017ZM293.985 18V12.435H294.993V18H293.985ZM294.688 15.648V14.787H296.526V15.648H294.688ZM296.778 15.333L295.843 15.207L297.975 12.435H299.056L296.778 15.333ZM300.26 18V12.435H301.268V16.488L304.681 12.435H305.594V18H304.586V13.947L301.184 18H300.26ZM306.669 18L309.063 14.892L309.052 15.4065L306.774 12.435H307.897L309.64 14.724H309.21L310.953 12.435H312.055L309.745 15.4275L309.756 14.892L312.171 18H311.026L309.189 15.564L309.598 15.627L307.792 18H306.669ZM142.778 30.5275V26.317H140.363L140.31 27.388C140.296 27.738 140.272 28.0775 140.237 28.4065C140.209 28.7285 140.16 29.026 140.09 29.299C140.027 29.572 139.932 29.796 139.806 29.971C139.68 30.146 139.512 30.2545 139.302 30.2965L138.305 30.118C138.522 30.125 138.697 30.055 138.83 29.908C138.963 29.754 139.064 29.544 139.134 29.278C139.211 29.012 139.267 28.711 139.302 28.375C139.337 28.032 139.365 27.6785 139.386 27.3145L139.47 25.435H143.786V30.5275H142.778ZM138.084 32.2915V30.118H144.636V32.2915H143.691V31H139.04V32.2915H138.084ZM148.427 31.063C147.832 31.063 147.307 30.9405 146.852 30.6955C146.404 30.4505 146.054 30.1145 145.802 29.6875C145.557 29.2605 145.435 28.7705 145.435 28.2175C145.435 27.6645 145.554 27.1745 145.792 26.7475C146.037 26.3205 146.369 25.988 146.789 25.75C147.216 25.505 147.696 25.3825 148.228 25.3825C148.767 25.3825 149.243 25.5015 149.656 25.7395C150.069 25.9775 150.391 26.3135 150.622 26.7475C150.86 27.1745 150.979 27.675 150.979 28.249C150.979 28.291 150.975 28.34 150.968 28.396C150.968 28.452 150.965 28.5045 150.958 28.5535H146.222V27.829H150.433L150.023 28.081C150.03 27.724 149.957 27.4055 149.803 27.1255C149.649 26.8455 149.435 26.6285 149.162 26.4745C148.896 26.3135 148.585 26.233 148.228 26.233C147.878 26.233 147.566 26.3135 147.293 26.4745C147.02 26.6285 146.807 26.849 146.653 27.136C146.499 27.416 146.422 27.738 146.422 28.102V28.27C146.422 28.641 146.506 28.9735 146.674 29.2675C146.849 29.5545 147.09 29.7785 147.398 29.9395C147.706 30.1005 148.06 30.181 148.459 30.181C148.788 30.181 149.085 30.125 149.351 30.013C149.624 29.901 149.862 29.733 150.065 29.509L150.622 30.16C150.37 30.454 150.055 30.678 149.677 30.832C149.306 30.986 148.889 31.063 148.427 31.063ZM155.493 31.063C155.031 31.063 154.607 30.958 154.222 30.748C153.844 30.531 153.54 30.2125 153.309 29.7925C153.085 29.3725 152.973 28.8475 152.973 28.2175C152.973 27.5875 153.081 27.0625 153.298 26.6425C153.522 26.2225 153.823 25.9075 154.201 25.6975C154.586 25.4875 155.017 25.3825 155.493 25.3825C156.039 25.3825 156.522 25.5015 156.942 25.7395C157.362 25.9775 157.694 26.31 157.939 26.737C158.184 27.157 158.307 27.6505 158.307 28.2175C158.307 28.7845 158.184 29.2815 157.939 29.7085C157.694 30.1355 157.362 30.468 156.942 30.706C156.522 30.944 156.039 31.063 155.493 31.063ZM152.542 33.037V25.435H153.508V26.9365L153.445 28.228L153.55 29.5195V33.037H152.542ZM155.409 30.181C155.766 30.181 156.084 30.1005 156.364 29.9395C156.651 29.7785 156.875 29.551 157.036 29.257C157.204 28.956 157.288 28.6095 157.288 28.2175C157.288 27.8185 157.204 27.4755 157.036 27.1885C156.875 26.8945 156.651 26.667 156.364 26.506C156.084 26.345 155.766 26.2645 155.409 26.2645C155.059 26.2645 154.74 26.345 154.453 26.506C154.173 26.667 153.949 26.8945 153.781 27.1885C153.62 27.4755 153.54 27.8185 153.54 28.2175C153.54 28.6095 153.62 28.956 153.781 29.257C153.949 29.551 154.173 29.7785 154.453 29.9395C154.74 30.1005 155.059 30.181 155.409 30.181ZM162.249 31.063C161.654 31.063 161.129 30.9405 160.674 30.6955C160.226 30.4505 159.876 30.1145 159.624 29.6875C159.379 29.2605 159.257 28.7705 159.257 28.2175C159.257 27.6645 159.376 27.1745 159.614 26.7475C159.859 26.3205 160.191 25.988 160.611 25.75C161.038 25.505 161.518 25.3825 162.05 25.3825C162.589 25.3825 163.065 25.5015 163.478 25.7395C163.891 25.9775 164.213 26.3135 164.444 26.7475C164.682 27.1745 164.801 27.675 164.801 28.249C164.801 28.291 164.797 28.34 164.79 28.396C164.79 28.452 164.787 28.5045 164.78 28.5535H160.044V27.829H164.255L163.845 28.081C163.852 27.724 163.779 27.4055 163.625 27.1255C163.471 26.8455 163.257 26.6285 162.984 26.4745C162.718 26.3135 162.407 26.233 162.05 26.233C161.7 26.233 161.388 26.3135 161.115 26.4745C160.842 26.6285 160.629 26.849 160.475 27.136C160.321 27.416 160.244 27.738 160.244 28.102V28.27C160.244 28.641 160.328 28.9735 160.496 29.2675C160.671 29.5545 160.912 29.7785 161.22 29.9395C161.528 30.1005 161.882 30.181 162.281 30.181C162.61 30.181 162.907 30.125 163.173 30.013C163.446 29.901 163.684 29.733 163.887 29.509L164.444 30.16C164.192 30.454 163.877 30.678 163.499 30.832C163.128 30.986 162.711 31.063 162.249 31.063ZM166.365 31V25.435H168.948C169.599 25.435 170.11 25.561 170.481 25.813C170.859 26.058 171.048 26.408 171.048 26.863C171.048 27.318 170.869 27.6715 170.512 27.9235C170.162 28.1685 169.697 28.291 169.116 28.291L169.273 28.018C169.938 28.018 170.432 28.1405 170.754 28.3855C171.076 28.6305 171.237 28.991 171.237 29.467C171.237 29.95 171.055 30.328 170.691 30.601C170.334 30.867 169.784 31 169.042 31H166.365ZM167.352 30.223H168.969C169.389 30.223 169.704 30.16 169.914 30.034C170.124 29.901 170.229 29.691 170.229 29.404C170.229 29.11 170.131 28.8965 169.935 28.7635C169.746 28.6235 169.445 28.5535 169.032 28.5535H167.352V30.223ZM167.352 27.829H168.864C169.249 27.829 169.539 27.759 169.735 27.619C169.938 27.472 170.04 27.269 170.04 27.01C170.04 26.744 169.938 26.5445 169.735 26.4115C169.539 26.2785 169.249 26.212 168.864 26.212H167.352V27.829ZM176.374 31V29.047L176.531 29.236H174.757C174.015 29.236 173.434 29.0785 173.014 28.7635C172.601 28.4485 172.394 27.99 172.394 27.388C172.394 26.744 172.615 26.2575 173.056 25.9285C173.504 25.5995 174.099 25.435 174.841 25.435H177.277V31H176.374ZM172.342 31L173.854 28.8685H174.893L173.423 31H172.342ZM176.374 28.732V26.0335L176.531 26.317H174.872C174.41 26.317 174.053 26.4045 173.801 26.5795C173.549 26.7475 173.423 27.0275 173.423 27.4195C173.423 28.1475 173.892 28.5115 174.83 28.5115H176.531L176.374 28.732ZM179.244 31V25.435H180.252V27.7975H183.423V25.435H184.431V31H183.423V28.669H180.252V31H179.244ZM186.391 31V25.435H187.399V27.7975H190.57V25.435H191.578V31H190.57V28.669H187.399V31H186.391ZM199.04 31V25.435H200.048V31H199.04ZM196.047 27.325C196.754 27.332 197.29 27.493 197.654 27.808C198.025 28.123 198.21 28.5675 198.21 29.1415C198.21 29.7435 198.007 30.209 197.601 30.538C197.202 30.86 196.628 31.0175 195.879 31.0105L193.538 31V25.435H194.546V27.3145L196.047 27.325ZM195.806 30.244C196.254 30.251 196.597 30.16 196.835 29.971C197.073 29.782 197.192 29.502 197.192 29.131C197.192 28.767 197.073 28.501 196.835 28.333C196.604 28.165 196.261 28.0775 195.806 28.0705L194.546 28.0495V30.2335L195.806 30.244ZM201.125 31L203.519 27.892L203.509 28.4065L201.23 25.435H202.354L204.097 27.724H203.666L205.409 25.435H206.512L204.202 28.4275L204.212 27.892L206.627 31H205.483L203.645 28.564L204.055 28.627L202.249 31H201.125ZM210.508 31V25.435H211.516V29.488L214.928 25.435H215.842V31H214.834V26.947L211.432 31H210.508ZM219.334 31.0735C218.914 31.0735 218.501 31.021 218.095 30.916C217.695 30.804 217.338 30.6465 217.023 30.4435L217.328 29.677C217.594 29.845 217.898 29.978 218.242 30.076C218.585 30.167 218.931 30.2125 219.281 30.2125C219.603 30.2125 219.88 30.174 220.111 30.097C220.349 30.02 220.531 29.915 220.657 29.782C220.783 29.642 220.846 29.481 220.846 29.299C220.846 29.04 220.73 28.8405 220.499 28.7005C220.268 28.5605 219.946 28.4905 219.533 28.4905H218.525V27.766H219.47C219.715 27.766 219.929 27.738 220.111 27.682C220.293 27.626 220.433 27.542 220.531 27.43C220.636 27.311 220.688 27.1745 220.688 27.0205C220.688 26.8525 220.629 26.709 220.51 26.59C220.391 26.471 220.223 26.38 220.006 26.317C219.796 26.254 219.547 26.2225 219.26 26.2225C218.98 26.2295 218.693 26.268 218.399 26.338C218.112 26.408 217.818 26.5165 217.517 26.6635L217.244 25.876C217.58 25.715 217.909 25.5925 218.231 25.5085C218.56 25.4175 218.886 25.3685 219.208 25.3615C219.691 25.3475 220.121 25.4035 220.499 25.5295C220.877 25.6485 221.175 25.8235 221.392 26.0545C221.616 26.2855 221.728 26.5585 221.728 26.8735C221.728 27.1395 221.644 27.3775 221.476 27.5875C221.308 27.7905 221.084 27.9515 220.804 28.0705C220.524 28.1895 220.202 28.249 219.838 28.249L219.88 28.0075C220.503 28.0075 220.993 28.13 221.35 28.375C221.707 28.62 221.885 28.9525 221.885 29.3725C221.885 29.7085 221.773 30.006 221.549 30.265C221.325 30.517 221.021 30.7165 220.636 30.8635C220.258 31.0035 219.824 31.0735 219.334 31.0735ZM227.218 30.5275V26.317H224.803L224.751 27.388C224.737 27.738 224.712 28.0775 224.677 28.4065C224.649 28.7285 224.6 29.026 224.53 29.299C224.467 29.572 224.373 29.796 224.247 29.971C224.121 30.146 223.953 30.2545 223.743 30.2965L222.745 30.118C222.962 30.125 223.137 30.055 223.27 29.908C223.403 29.754 223.505 29.544 223.575 29.278C223.652 29.012 223.708 28.711 223.743 28.375C223.778 28.032 223.806 27.6785 223.827 27.3145L223.911 25.435H228.226V30.5275H227.218ZM222.525 32.2915V30.118H229.077V32.2915H228.132V31H223.48V32.2915H222.525ZM232.868 31.063C232.273 31.063 231.748 30.9405 231.293 30.6955C230.845 30.4505 230.495 30.1145 230.243 29.6875C229.998 29.2605 229.876 28.7705 229.876 28.2175C229.876 27.6645 229.995 27.1745 230.233 26.7475C230.478 26.3205 230.81 25.988 231.23 25.75C231.657 25.505 232.137 25.3825 232.669 25.3825C233.208 25.3825 233.684 25.5015 234.097 25.7395C234.51 25.9775 234.832 26.3135 235.063 26.7475C235.301 27.1745 235.42 27.675 235.42 28.249C235.42 28.291 235.416 28.34 235.409 28.396C235.409 28.452 235.406 28.5045 235.399 28.5535H230.663V27.829H234.874L234.464 28.081C234.471 27.724 234.398 27.4055 234.244 27.1255C234.09 26.8455 233.876 26.6285 233.603 26.4745C233.337 26.3135 233.026 26.233 232.669 26.233C232.319 26.233 232.007 26.3135 231.734 26.4745C231.461 26.6285 231.248 26.849 231.094 27.136C230.94 27.416 230.863 27.738 230.863 28.102V28.27C230.863 28.641 230.947 28.9735 231.115 29.2675C231.29 29.5545 231.531 29.7785 231.839 29.9395C232.147 30.1005 232.501 30.181 232.9 30.181C233.229 30.181 233.526 30.125 233.792 30.013C234.065 29.901 234.303 29.733 234.506 29.509L235.063 30.16C234.811 30.454 234.496 30.678 234.118 30.832C233.747 30.986 233.33 31.063 232.868 31.063ZM235.967 30.9895L236.03 30.139C236.079 30.146 236.125 30.153 236.167 30.16C236.209 30.167 236.247 30.1705 236.282 30.1705C236.506 30.1705 236.681 30.0935 236.807 29.9395C236.94 29.7855 237.038 29.5825 237.101 29.3305C237.164 29.0715 237.21 28.781 237.238 28.459C237.266 28.137 237.287 27.815 237.301 27.493L237.395 25.435H241.669V31H240.661V26.023L240.902 26.317H238.046L238.277 26.0125L238.204 27.556C238.183 28.046 238.144 28.5045 238.088 28.9315C238.032 29.3585 237.945 29.733 237.826 30.055C237.714 30.377 237.556 30.629 237.353 30.811C237.157 30.993 236.902 31.084 236.587 31.084C236.496 31.084 236.398 31.0735 236.293 31.0525C236.195 31.0385 236.086 31.0175 235.967 30.9895ZM243.618 31V25.435H244.626V29.488L248.038 25.435H248.952V31H247.944V26.947L244.542 31H243.618ZM250.908 31V25.435H251.916V29.488L255.329 25.435H256.242V31H255.234V26.947L251.832 31H250.908ZM253.512 24.7105C253.001 24.7105 252.599 24.588 252.305 24.343C252.018 24.091 251.871 23.7305 251.864 23.2615H252.546C252.553 23.5275 252.641 23.7375 252.809 23.8915C252.984 24.0455 253.215 24.1225 253.502 24.1225C253.789 24.1225 254.02 24.0455 254.195 23.8915C254.37 23.7375 254.461 23.5275 254.468 23.2615H255.171C255.164 23.7305 255.014 24.091 254.72 24.343C254.426 24.588 254.023 24.7105 253.512 24.7105ZM263.969 31.063C263.507 31.063 263.084 30.958 262.699 30.748C262.321 30.531 262.016 30.2125 261.785 29.7925C261.561 29.3725 261.449 28.8475 261.449 28.2175C261.449 27.5875 261.558 27.0625 261.775 26.6425C261.999 26.2225 262.3 25.9075 262.678 25.6975C263.063 25.4875 263.493 25.3825 263.969 25.3825C264.515 25.3825 264.998 25.5015 265.418 25.7395C265.838 25.9775 266.171 26.31 266.416 26.737C266.661 27.157 266.783 27.6505 266.783 28.2175C266.783 28.7845 266.661 29.2815 266.416 29.7085C266.171 30.1355 265.838 30.468 265.418 30.706C264.998 30.944 264.515 31.063 263.969 31.063ZM261.018 33.037V25.435H261.985V26.9365L261.922 28.228L262.027 29.5195V33.037H261.018ZM263.885 30.181C264.242 30.181 264.561 30.1005 264.841 29.9395C265.128 29.7785 265.352 29.551 265.513 29.257C265.681 28.956 265.765 28.6095 265.765 28.2175C265.765 27.8185 265.681 27.4755 265.513 27.1885C265.352 26.8945 265.128 26.667 264.841 26.506C264.561 26.345 264.242 26.2645 263.885 26.2645C263.535 26.2645 263.217 26.345 262.93 26.506C262.65 26.667 262.426 26.8945 262.258 27.1885C262.097 27.4755 262.016 27.8185 262.016 28.2175C262.016 28.6095 262.097 28.956 262.258 29.257C262.426 29.551 262.65 29.7785 262.93 29.9395C263.217 30.1005 263.535 30.181 263.885 30.181ZM268.377 33.1C268.111 33.1 267.852 33.0545 267.6 32.9635C267.348 32.8795 267.131 32.7535 266.949 32.5855L267.38 31.8295C267.52 31.9625 267.674 32.064 267.842 32.134C268.01 32.204 268.188 32.239 268.377 32.239C268.622 32.239 268.825 32.176 268.986 32.05C269.147 31.924 269.298 31.7 269.438 31.378L269.784 30.6115L269.889 30.4855L272.073 25.435H273.06L270.362 31.5565C270.201 31.9485 270.019 32.2565 269.816 32.4805C269.62 32.7045 269.403 32.862 269.165 32.953C268.927 33.051 268.664 33.1 268.377 33.1ZM269.7 31.1785L267.159 25.435H268.209L270.372 30.391L269.7 31.1785ZM277.599 28.7215C277.305 28.8615 277.001 28.9735 276.686 29.0575C276.378 29.1345 276.059 29.173 275.73 29.173C275.058 29.173 274.526 29.0155 274.134 28.7005C273.749 28.3855 273.557 27.899 273.557 27.241V25.435H274.565V27.178C274.565 27.577 274.687 27.871 274.932 28.06C275.184 28.249 275.52 28.3435 275.94 28.3435C276.206 28.3435 276.479 28.3085 276.759 28.2385C277.046 28.1685 277.326 28.0705 277.599 27.9445V28.7215ZM277.526 31V25.435H278.534V31H277.526ZM280.491 31V25.435H281.499V27.7975H284.67V25.435H285.678V31H284.67V28.669H281.499V31H280.491ZM290.021 31.063C289.461 31.063 288.964 30.9405 288.53 30.6955C288.096 30.4505 287.753 30.1145 287.501 29.6875C287.249 29.2535 287.123 28.7635 287.123 28.2175C287.123 27.6645 287.249 27.1745 287.501 26.7475C287.753 26.3205 288.096 25.988 288.53 25.75C288.964 25.505 289.461 25.3825 290.021 25.3825C290.574 25.3825 291.068 25.505 291.502 25.75C291.943 25.988 292.286 26.3205 292.531 26.7475C292.783 27.1675 292.909 27.6575 292.909 28.2175C292.909 28.7705 292.783 29.2605 292.531 29.6875C292.286 30.1145 291.943 30.4505 291.502 30.6955C291.068 30.9405 290.574 31.063 290.021 31.063ZM290.021 30.181C290.378 30.181 290.697 30.1005 290.977 29.9395C291.264 29.7785 291.488 29.551 291.649 29.257C291.81 28.956 291.89 28.6095 291.89 28.2175C291.89 27.8185 291.81 27.4755 291.649 27.1885C291.488 26.8945 291.264 26.667 290.977 26.506C290.697 26.345 290.378 26.2645 290.021 26.2645C289.664 26.2645 289.346 26.345 289.066 26.506C288.786 26.667 288.562 26.8945 288.394 27.1885C288.226 27.4755 288.142 27.8185 288.142 28.2175C288.142 28.6095 288.226 28.956 288.394 29.257C288.562 29.551 288.786 29.7785 289.066 29.9395C289.346 30.1005 289.664 30.181 290.021 30.181ZM294.364 31V25.435H295.372V29.488L298.785 25.435H299.698V31H298.69V26.947L295.288 31H294.364ZM296.968 24.7105C296.457 24.7105 296.055 24.588 295.761 24.343C295.474 24.091 295.327 23.7305 295.32 23.2615H296.002C296.009 23.5275 296.097 23.7375 296.265 23.8915C296.44 24.0455 296.671 24.1225 296.958 24.1225C297.245 24.1225 297.476 24.0455 297.651 23.8915C297.826 23.7375 297.917 23.5275 297.924 23.2615H298.627C298.62 23.7305 298.47 24.091 298.176 24.343C297.882 24.588 297.479 24.7105 296.968 24.7105ZM307.425 31.063C306.963 31.063 306.54 30.958 306.155 30.748C305.777 30.531 305.472 30.2125 305.241 29.7925C305.017 29.3725 304.905 28.8475 304.905 28.2175C304.905 27.5875 305.014 27.0625 305.231 26.6425C305.455 26.2225 305.756 25.9075 306.134 25.6975C306.519 25.4875 306.949 25.3825 307.425 25.3825C307.971 25.3825 308.454 25.5015 308.874 25.7395C309.294 25.9775 309.627 26.31 309.872 26.737C310.117 27.157 310.239 27.6505 310.239 28.2175C310.239 28.7845 310.117 29.2815 309.872 29.7085C309.627 30.1355 309.294 30.468 308.874 30.706C308.454 30.944 307.971 31.063 307.425 31.063ZM304.475 33.037V25.435H305.441V26.9365L305.378 28.228L305.483 29.5195V33.037H304.475ZM307.341 30.181C307.698 30.181 308.017 30.1005 308.297 29.9395C308.584 29.7785 308.808 29.551 308.969 29.257C309.137 28.956 309.221 28.6095 309.221 28.2175C309.221 27.8185 309.137 27.4755 308.969 27.1885C308.808 26.8945 308.584 26.667 308.297 26.506C308.017 26.345 307.698 26.2645 307.341 26.2645C306.991 26.2645 306.673 26.345 306.386 26.506C306.106 26.667 305.882 26.8945 305.714 27.1885C305.553 27.4755 305.472 27.8185 305.472 28.2175C305.472 28.6095 305.553 28.956 305.714 29.257C305.882 29.551 306.106 29.7785 306.386 29.9395C306.673 30.1005 306.991 30.181 307.341 30.181ZM315.065 31V29.824L315.012 29.6035V27.598C315.012 27.171 314.886 26.842 314.634 26.611C314.389 26.373 314.018 26.254 313.521 26.254C313.192 26.254 312.87 26.31 312.555 26.422C312.24 26.527 311.974 26.6705 311.757 26.8525L311.337 26.0965C311.624 25.8655 311.967 25.6905 312.366 25.5715C312.772 25.4455 313.196 25.3825 313.637 25.3825C314.4 25.3825 314.988 25.568 315.401 25.939C315.814 26.31 316.02 26.877 316.02 27.64V31H315.065ZM313.238 31.063C312.825 31.063 312.461 30.993 312.146 30.853C311.838 30.713 311.6 30.5205 311.432 30.2755C311.264 30.0235 311.18 29.74 311.18 29.425C311.18 29.124 311.25 28.851 311.39 28.606C311.537 28.361 311.771 28.165 312.093 28.018C312.422 27.871 312.863 27.7975 313.416 27.7975H315.18V28.522H313.458C312.954 28.522 312.615 28.606 312.44 28.774C312.265 28.942 312.177 29.145 312.177 29.383C312.177 29.656 312.286 29.8765 312.503 30.0445C312.72 30.2055 313.021 30.286 313.406 30.286C313.784 30.286 314.113 30.202 314.393 30.034C314.68 29.866 314.886 29.621 315.012 29.299L315.212 29.992C315.079 30.321 314.844 30.5835 314.508 30.7795C314.172 30.9685 313.749 31.063 313.238 31.063ZM320.408 31.084C319.946 31.084 319.536 31.0105 319.179 30.8635C318.829 30.7165 318.528 30.4995 318.276 30.2125C318.024 29.9185 317.832 29.551 317.699 29.11C317.573 28.662 317.51 28.137 317.51 27.535C317.51 27.059 317.552 26.632 317.636 26.254C317.72 25.876 317.839 25.54 317.993 25.246C318.154 24.952 318.35 24.6965 318.581 24.4795C318.819 24.2625 319.085 24.084 319.379 23.944C319.68 23.797 320.009 23.685 320.366 23.608L322.907 23.041L323.054 23.9755L320.712 24.4795C320.572 24.5075 320.404 24.5495 320.208 24.6055C320.012 24.6615 319.813 24.749 319.61 24.868C319.407 24.98 319.218 25.1375 319.043 25.3405C318.868 25.5435 318.728 25.8095 318.623 26.1385C318.518 26.4605 318.465 26.8595 318.465 27.3355C318.465 27.4685 318.469 27.57 318.476 27.64C318.483 27.71 318.49 27.78 318.497 27.85C318.511 27.92 318.521 28.025 318.528 28.165L318.108 27.7345C318.22 27.3495 318.399 27.0135 318.644 26.7265C318.889 26.4395 319.183 26.219 319.526 26.065C319.876 25.904 320.257 25.8235 320.67 25.8235C321.188 25.8235 321.647 25.9355 322.046 26.1595C322.452 26.3835 322.77 26.6915 323.001 27.0835C323.232 27.4755 323.348 27.9235 323.348 28.4275C323.348 28.9385 323.225 29.397 322.98 29.803C322.742 30.202 322.403 30.517 321.962 30.748C321.521 30.972 321.003 31.084 320.408 31.084ZM320.502 30.244C320.859 30.244 321.174 30.167 321.447 30.013C321.72 29.852 321.934 29.6385 322.088 29.3725C322.242 29.0995 322.319 28.795 322.319 28.459C322.319 28.123 322.242 27.8255 322.088 27.5665C321.934 27.3075 321.72 27.1045 321.447 26.9575C321.174 26.8035 320.852 26.7265 320.481 26.7265C320.131 26.7265 319.816 26.8 319.536 26.947C319.256 27.087 319.039 27.2865 318.885 27.5455C318.731 27.7975 318.654 28.0915 318.654 28.4275C318.654 28.7635 318.731 29.0715 318.885 29.3515C319.046 29.6245 319.263 29.8415 319.536 30.0025C319.816 30.1635 320.138 30.244 320.502 30.244ZM327.171 31.063C326.611 31.063 326.114 30.9405 325.68 30.6955C325.246 30.4505 324.903 30.1145 324.651 29.6875C324.399 29.2535 324.273 28.7635 324.273 28.2175C324.273 27.6645 324.399 27.1745 324.651 26.7475C324.903 26.3205 325.246 25.988 325.68 25.75C326.114 25.505 326.611 25.3825 327.171 25.3825C327.724 25.3825 328.218 25.505 328.652 25.75C329.093 25.988 329.436 26.3205 329.681 26.7475C329.933 27.1675 330.059 27.6575 330.059 28.2175C330.059 28.7705 329.933 29.2605 329.681 29.6875C329.436 30.1145 329.093 30.4505 328.652 30.6955C328.218 30.9405 327.724 31.063 327.171 31.063ZM327.171 30.181C327.528 30.181 327.847 30.1005 328.127 29.9395C328.414 29.7785 328.638 29.551 328.799 29.257C328.96 28.956 329.04 28.6095 329.04 28.2175C329.04 27.8185 328.96 27.4755 328.799 27.1885C328.638 26.8945 328.414 26.667 328.127 26.506C327.847 26.345 327.528 26.2645 327.171 26.2645C326.814 26.2645 326.496 26.345 326.216 26.506C325.936 26.667 325.712 26.8945 325.544 27.1885C325.376 27.4755 325.292 27.8185 325.292 28.2175C325.292 28.6095 325.376 28.956 325.544 29.257C325.712 29.551 325.936 29.7785 326.216 29.9395C326.496 30.1005 326.814 30.181 327.171 30.181ZM332.412 31V26.0545L332.664 26.317H330.375V25.435H335.457V26.317H333.178L333.42 26.0545V31H332.412ZM341.989 31V25.435H342.997V31H341.989ZM338.997 27.325C339.704 27.332 340.239 27.493 340.603 27.808C340.974 28.123 341.16 28.5675 341.16 29.1415C341.16 29.7435 340.957 30.209 340.551 30.538C340.152 30.86 339.578 31.0175 338.829 31.0105L336.487 31V25.435H337.495V27.3145L338.997 27.325ZM338.755 30.244C339.203 30.251 339.546 30.16 339.784 29.971C340.022 29.782 340.141 29.502 340.141 29.131C340.141 28.767 340.022 28.501 339.784 28.333C339.553 28.165 339.21 28.0775 338.755 28.0705L337.495 28.0495V30.2335L338.755 30.244Z" fill="url(#paint0_linear_118_1111)"/>
<path d="M139.145 18V10.65H140.184V16.32L144.531 10.65H145.497V18H144.468V12.3405L140.111 18H139.145ZM147.621 18V12.435H148.629V14.7975H151.8V12.435H152.808V18H151.8V15.669H148.629V18H147.621ZM155.87 18V13.0545L156.122 13.317H153.833V12.435H158.915V13.317H156.637L156.878 13.0545V18H155.87ZM162.178 18.063C161.583 18.063 161.058 17.9405 160.603 17.6955C160.155 17.4505 159.805 17.1145 159.553 16.6875C159.308 16.2605 159.185 15.7705 159.185 15.2175C159.185 14.6645 159.304 14.1745 159.542 13.7475C159.787 13.3205 160.12 12.988 160.54 12.75C160.967 12.505 161.446 12.3825 161.978 12.3825C162.517 12.3825 162.993 12.5015 163.406 12.7395C163.819 12.9775 164.141 13.3135 164.372 13.7475C164.61 14.1745 164.729 14.675 164.729 15.249C164.729 15.291 164.726 15.34 164.719 15.396C164.719 15.452 164.715 15.5045 164.708 15.5535H159.973V14.829H164.183L163.774 15.081C163.781 14.724 163.707 14.4055 163.553 14.1255C163.399 13.8455 163.186 13.6285 162.913 13.4745C162.647 13.3135 162.335 13.233 161.978 13.233C161.628 13.233 161.317 13.3135 161.044 13.4745C160.771 13.6285 160.557 13.849 160.403 14.136C160.249 14.416 160.172 14.738 160.172 15.102V15.27C160.172 15.641 160.256 15.9735 160.424 16.2675C160.599 16.5545 160.841 16.7785 161.149 16.9395C161.457 17.1005 161.81 17.181 162.209 17.181C162.538 17.181 162.836 17.125 163.102 17.013C163.375 16.901 163.613 16.733 163.816 16.509L164.372 17.16C164.12 17.454 163.805 17.678 163.427 17.832C163.056 17.986 162.64 18.063 162.178 18.063ZM169.243 18.063C168.781 18.063 168.358 17.958 167.973 17.748C167.595 17.531 167.29 17.2125 167.059 16.7925C166.835 16.3725 166.723 15.8475 166.723 15.2175C166.723 14.5875 166.832 14.0625 167.049 13.6425C167.273 13.2225 167.574 12.9075 167.952 12.6975C168.337 12.4875 168.767 12.3825 169.243 12.3825C169.789 12.3825 170.272 12.5015 170.692 12.7395C171.112 12.9775 171.445 13.31 171.69 13.737C171.935 14.157 172.057 14.6505 172.057 15.2175C172.057 15.7845 171.935 16.2815 171.69 16.7085C171.445 17.1355 171.112 17.468 170.692 17.706C170.272 17.944 169.789 18.063 169.243 18.063ZM166.293 20.037V12.435H167.259V13.9365L167.196 15.228L167.301 16.5195V20.037H166.293ZM169.159 17.181C169.516 17.181 169.835 17.1005 170.115 16.9395C170.402 16.7785 170.626 16.551 170.787 16.257C170.955 15.956 171.039 15.6095 171.039 15.2175C171.039 14.8185 170.955 14.4755 170.787 14.1885C170.626 13.8945 170.402 13.667 170.115 13.506C169.835 13.345 169.516 13.2645 169.159 13.2645C168.809 13.2645 168.491 13.345 168.204 13.506C167.924 13.667 167.7 13.8945 167.532 14.1885C167.371 14.4755 167.29 14.8185 167.29 15.2175C167.29 15.6095 167.371 15.956 167.532 16.257C167.7 16.551 167.924 16.7785 168.204 16.9395C168.491 17.1005 168.809 17.181 169.159 17.181ZM176.094 14.325C176.801 14.332 177.34 14.493 177.711 14.808C178.082 15.123 178.268 15.5675 178.268 16.1415C178.268 16.7435 178.065 17.209 177.659 17.538C177.253 17.86 176.679 18.0175 175.937 18.0105L173.522 18V12.435H174.53V14.3145L176.094 14.325ZM175.853 17.244C176.308 17.251 176.651 17.16 176.882 16.971C177.12 16.782 177.239 16.502 177.239 16.131C177.239 15.767 177.123 15.501 176.892 15.333C176.661 15.165 176.315 15.0775 175.853 15.0705L174.53 15.0495V17.2335L175.853 17.244ZM182.039 18.063C181.444 18.063 180.919 17.9405 180.464 17.6955C180.016 17.4505 179.666 17.1145 179.414 16.6875C179.169 16.2605 179.047 15.7705 179.047 15.2175C179.047 14.6645 179.166 14.1745 179.404 13.7475C179.649 13.3205 179.981 12.988 180.401 12.75C180.828 12.505 181.308 12.3825 181.84 12.3825C182.379 12.3825 182.855 12.5015 183.268 12.7395C183.681 12.9775 184.003 13.3135 184.234 13.7475C184.472 14.1745 184.591 14.675 184.591 15.249C184.591 15.291 184.587 15.34 184.58 15.396C184.58 15.452 184.577 15.5045 184.57 15.5535H179.834V14.829H184.045L183.635 15.081C183.642 14.724 183.569 14.4055 183.415 14.1255C183.261 13.8455 183.047 13.6285 182.774 13.4745C182.508 13.3135 182.197 13.233 181.84 13.233C181.49 13.233 181.178 13.3135 180.905 13.4745C180.632 13.6285 180.419 13.849 180.265 14.136C180.111 14.416 180.034 14.738 180.034 15.102V15.27C180.034 15.641 180.118 15.9735 180.286 16.2675C180.461 16.5545 180.702 16.7785 181.01 16.9395C181.318 17.1005 181.672 17.181 182.071 17.181C182.4 17.181 182.697 17.125 182.963 17.013C183.236 16.901 183.474 16.733 183.677 16.509L184.234 17.16C183.982 17.454 183.667 17.678 183.289 17.832C182.918 17.986 182.501 18.063 182.039 18.063ZM189.105 18.063C188.643 18.063 188.22 17.958 187.835 17.748C187.457 17.531 187.152 17.2125 186.921 16.7925C186.697 16.3725 186.585 15.8475 186.585 15.2175C186.585 14.5875 186.694 14.0625 186.911 13.6425C187.135 13.2225 187.436 12.9075 187.814 12.6975C188.199 12.4875 188.629 12.3825 189.105 12.3825C189.651 12.3825 190.134 12.5015 190.554 12.7395C190.974 12.9775 191.307 13.31 191.552 13.737C191.797 14.157 191.919 14.6505 191.919 15.2175C191.919 15.7845 191.797 16.2815 191.552 16.7085C191.307 17.1355 190.974 17.468 190.554 17.706C190.134 17.944 189.651 18.063 189.105 18.063ZM186.155 20.037V12.435H187.121V13.9365L187.058 15.228L187.163 16.5195V20.037H186.155ZM189.021 17.181C189.378 17.181 189.697 17.1005 189.977 16.9395C190.264 16.7785 190.488 16.551 190.649 16.257C190.817 15.956 190.901 15.6095 190.901 15.2175C190.901 14.8185 190.817 14.4755 190.649 14.1885C190.488 13.8945 190.264 13.667 189.977 13.506C189.697 13.345 189.378 13.2645 189.021 13.2645C188.671 13.2645 188.353 13.345 188.066 13.506C187.786 13.667 187.562 13.8945 187.394 14.1885C187.233 14.4755 187.152 14.8185 187.152 15.2175C187.152 15.6095 187.233 15.956 187.394 16.257C187.562 16.551 187.786 16.7785 188.066 16.9395C188.353 17.1005 188.671 17.181 189.021 17.181ZM193.384 18V12.435H194.392V14.7975H197.563V12.435H198.571V18H197.563V15.669H194.392V18H193.384ZM202.914 18.063C202.354 18.063 201.857 17.9405 201.423 17.6955C200.989 17.4505 200.646 17.1145 200.394 16.6875C200.142 16.2535 200.016 15.7635 200.016 15.2175C200.016 14.6645 200.142 14.1745 200.394 13.7475C200.646 13.3205 200.989 12.988 201.423 12.75C201.857 12.505 202.354 12.3825 202.914 12.3825C203.467 12.3825 203.961 12.505 204.395 12.75C204.836 12.988 205.179 13.3205 205.424 13.7475C205.676 14.1675 205.802 14.6575 205.802 15.2175C205.802 15.7705 205.676 16.2605 205.424 16.6875C205.179 17.1145 204.836 17.4505 204.395 17.6955C203.961 17.9405 203.467 18.063 202.914 18.063ZM202.914 17.181C203.271 17.181 203.59 17.1005 203.87 16.9395C204.157 16.7785 204.381 16.551 204.542 16.257C204.703 15.956 204.783 15.6095 204.783 15.2175C204.783 14.8185 204.703 14.4755 204.542 14.1885C204.381 13.8945 204.157 13.667 203.87 13.506C203.59 13.345 203.271 13.2645 202.914 13.2645C202.557 13.2645 202.239 13.345 201.959 13.506C201.679 13.667 201.455 13.8945 201.287 14.1885C201.119 14.4755 201.035 14.8185 201.035 15.2175C201.035 15.6095 201.119 15.956 201.287 16.257C201.455 16.551 201.679 16.7785 201.959 16.9395C202.239 17.1005 202.557 17.181 202.914 17.181ZM209.735 18.063C209.14 18.063 208.615 17.9405 208.16 17.6955C207.712 17.4505 207.362 17.1145 207.11 16.6875C206.865 16.2605 206.743 15.7705 206.743 15.2175C206.743 14.6645 206.862 14.1745 207.1 13.7475C207.345 13.3205 207.677 12.988 208.097 12.75C208.524 12.505 209.004 12.3825 209.536 12.3825C210.075 12.3825 210.551 12.5015 210.964 12.7395C211.377 12.9775 211.699 13.3135 211.93 13.7475C212.168 14.1745 212.287 14.675 212.287 15.249C212.287 15.291 212.283 15.34 212.276 15.396C212.276 15.452 212.273 15.5045 212.266 15.5535H207.53V14.829H211.741L211.331 15.081C211.338 14.724 211.265 14.4055 211.111 14.1255C210.957 13.8455 210.743 13.6285 210.47 13.4745C210.204 13.3135 209.893 13.233 209.536 13.233C209.186 13.233 208.874 13.3135 208.601 13.4745C208.328 13.6285 208.115 13.849 207.961 14.136C207.807 14.416 207.73 14.738 207.73 15.102V15.27C207.73 15.641 207.814 15.9735 207.982 16.2675C208.157 16.5545 208.398 16.7785 208.706 16.9395C209.014 17.1005 209.368 17.181 209.767 17.181C210.096 17.181 210.393 17.125 210.659 17.013C210.932 16.901 211.17 16.733 211.373 16.509L211.93 17.16C211.678 17.454 211.363 17.678 210.985 17.832C210.614 17.986 210.197 18.063 209.735 18.063ZM220.083 18V16.824L220.03 16.6035V14.598C220.03 14.171 219.904 13.842 219.652 13.611C219.407 13.373 219.036 13.254 218.539 13.254C218.21 13.254 217.888 13.31 217.573 13.422C217.258 13.527 216.992 13.6705 216.775 13.8525L216.355 13.0965C216.642 12.8655 216.985 12.6905 217.384 12.5715C217.79 12.4455 218.214 12.3825 218.655 12.3825C219.418 12.3825 220.006 12.568 220.419 12.939C220.832 13.31 221.038 13.877 221.038 14.64V18H220.083ZM218.256 18.063C217.843 18.063 217.479 17.993 217.164 17.853C216.856 17.713 216.618 17.5205 216.45 17.2755C216.282 17.0235 216.198 16.74 216.198 16.425C216.198 16.124 216.268 15.851 216.408 15.606C216.555 15.361 216.789 15.165 217.111 15.018C217.44 14.871 217.881 14.7975 218.434 14.7975H220.198V15.522H218.476C217.972 15.522 217.633 15.606 217.458 15.774C217.283 15.942 217.195 16.145 217.195 16.383C217.195 16.656 217.304 16.8765 217.521 17.0445C217.738 17.2055 218.039 17.286 218.424 17.286C218.802 17.286 219.131 17.202 219.411 17.034C219.698 16.866 219.904 16.621 220.03 16.299L220.23 16.992C220.097 17.321 219.862 17.5835 219.526 17.7795C219.19 17.9685 218.767 18.063 218.256 18.063ZM223.956 18V13.0545L224.208 13.317H221.919V12.435H227.001V13.317H224.722L224.964 13.0545V18H223.956ZM230.264 18.063C229.669 18.063 229.144 17.9405 228.689 17.6955C228.241 17.4505 227.891 17.1145 227.639 16.6875C227.394 16.2605 227.271 15.7705 227.271 15.2175C227.271 14.6645 227.39 14.1745 227.628 13.7475C227.873 13.3205 228.206 12.988 228.626 12.75C229.053 12.505 229.532 12.3825 230.064 12.3825C230.603 12.3825 231.079 12.5015 231.492 12.7395C231.905 12.9775 232.227 13.3135 232.458 13.7475C232.696 14.1745 232.815 14.675 232.815 15.249C232.815 15.291 232.812 15.34 232.805 15.396C232.805 15.452 232.801 15.5045 232.794 15.5535H228.059V14.829H232.269L231.86 15.081C231.867 14.724 231.793 14.4055 231.639 14.1255C231.485 13.8455 231.272 13.6285 230.999 13.4745C230.733 13.3135 230.421 13.233 230.064 13.233C229.714 13.233 229.403 13.3135 229.13 13.4745C228.857 13.6285 228.643 13.849 228.489 14.136C228.335 14.416 228.258 14.738 228.258 15.102V15.27C228.258 15.641 228.342 15.9735 228.51 16.2675C228.685 16.5545 228.927 16.7785 229.235 16.9395C229.543 17.1005 229.896 17.181 230.295 17.181C230.624 17.181 230.922 17.125 231.188 17.013C231.461 16.901 231.699 16.733 231.902 16.509L232.458 17.16C232.206 17.454 231.891 17.678 231.513 17.832C231.142 17.986 230.726 18.063 230.264 18.063ZM233.363 17.9895L233.426 17.139C233.475 17.146 233.52 17.153 233.562 17.16C233.604 17.167 233.643 17.1705 233.678 17.1705C233.902 17.1705 234.077 17.0935 234.203 16.9395C234.336 16.7855 234.434 16.5825 234.497 16.3305C234.56 16.0715 234.605 15.781 234.633 15.459C234.661 15.137 234.682 14.815 234.696 14.493L234.791 12.435H239.064V18H238.056V13.023L238.298 13.317H235.442L235.673 13.0125L235.599 14.556C235.578 15.046 235.54 15.5045 235.484 15.9315C235.428 16.3585 235.34 16.733 235.221 17.055C235.109 17.377 234.952 17.629 234.749 17.811C234.553 17.993 234.297 18.084 233.982 18.084C233.891 18.084 233.793 18.0735 233.688 18.0525C233.59 18.0385 233.482 18.0175 233.363 17.9895ZM243.586 14.325C244.293 14.332 244.832 14.493 245.203 14.808C245.574 15.123 245.759 15.5675 245.759 16.1415C245.759 16.7435 245.556 17.209 245.15 17.538C244.744 17.86 244.17 18.0175 243.428 18.0105L241.013 18V12.435H242.021V14.3145L243.586 14.325ZM243.344 17.244C243.799 17.251 244.142 17.16 244.373 16.971C244.611 16.782 244.73 16.502 244.73 16.131C244.73 15.767 244.615 15.501 244.384 15.333C244.153 15.165 243.806 15.0775 243.344 15.0705L242.021 15.0495V17.2335L243.344 17.244ZM249.531 18.063C248.936 18.063 248.411 17.9405 247.956 17.6955C247.508 17.4505 247.158 17.1145 246.906 16.6875C246.661 16.2605 246.538 15.7705 246.538 15.2175C246.538 14.6645 246.657 14.1745 246.895 13.7475C247.14 13.3205 247.473 12.988 247.893 12.75C248.32 12.505 248.799 12.3825 249.331 12.3825C249.87 12.3825 250.346 12.5015 250.759 12.7395C251.172 12.9775 251.494 13.3135 251.725 13.7475C251.963 14.1745 252.082 14.675 252.082 15.249C252.082 15.291 252.079 15.34 252.072 15.396C252.072 15.452 252.068 15.5045 252.061 15.5535H247.326V14.829H251.536L251.127 15.081C251.134 14.724 251.06 14.4055 250.906 14.1255C250.752 13.8455 250.539 13.6285 250.266 13.4745C250 13.3135 249.688 13.233 249.331 13.233C248.981 13.233 248.67 13.3135 248.397 13.4745C248.124 13.6285 247.91 13.849 247.756 14.136C247.602 14.416 247.525 14.738 247.525 15.102V15.27C247.525 15.641 247.609 15.9735 247.777 16.2675C247.952 16.5545 248.194 16.7785 248.502 16.9395C248.81 17.1005 249.163 17.181 249.562 17.181C249.891 17.181 250.189 17.125 250.455 17.013C250.728 16.901 250.966 16.733 251.169 16.509L251.725 17.16C251.473 17.454 251.158 17.678 250.78 17.832C250.409 17.986 249.993 18.063 249.531 18.063ZM259.878 18V16.824L259.826 16.6035V14.598C259.826 14.171 259.7 13.842 259.448 13.611C259.203 13.373 258.832 13.254 258.335 13.254C258.006 13.254 257.684 13.31 257.369 13.422C257.054 13.527 256.788 13.6705 256.571 13.8525L256.151 13.0965C256.438 12.8655 256.781 12.6905 257.18 12.5715C257.586 12.4455 258.009 12.3825 258.45 12.3825C259.213 12.3825 259.801 12.568 260.214 12.939C260.627 13.31 260.834 13.877 260.834 14.64V18H259.878ZM258.051 18.063C257.638 18.063 257.274 17.993 256.959 17.853C256.651 17.713 256.413 17.5205 256.245 17.2755C256.077 17.0235 255.993 16.74 255.993 16.425C255.993 16.124 256.063 15.851 256.203 15.606C256.35 15.361 256.585 15.165 256.907 15.018C257.236 14.871 257.677 14.7975 258.23 14.7975H259.994V15.522H258.272C257.768 15.522 257.428 15.606 257.253 15.774C257.078 15.942 256.991 16.145 256.991 16.383C256.991 16.656 257.099 16.8765 257.316 17.0445C257.533 17.2055 257.834 17.286 258.219 17.286C258.597 17.286 258.926 17.202 259.206 17.034C259.493 16.866 259.7 16.621 259.826 16.299L260.025 16.992C259.892 17.321 259.658 17.5835 259.322 17.7795C258.986 17.9685 258.562 18.063 258.051 18.063ZM262.649 18V12.435H265.232C265.883 12.435 266.394 12.561 266.765 12.813C267.143 13.058 267.332 13.408 267.332 13.863C267.332 14.318 267.153 14.6715 266.796 14.9235C266.446 15.1685 265.981 15.291 265.4 15.291L265.557 15.018C266.222 15.018 266.716 15.1405 267.038 15.3855C267.36 15.6305 267.521 15.991 267.521 16.467C267.521 16.95 267.339 17.328 266.975 17.601C266.618 17.867 266.068 18 265.326 18H262.649ZM263.636 17.223H265.253C265.673 17.223 265.988 17.16 266.198 17.034C266.408 16.901 266.513 16.691 266.513 16.404C266.513 16.11 266.415 15.8965 266.219 15.7635C266.03 15.6235 265.729 15.5535 265.316 15.5535H263.636V17.223ZM263.636 14.829H265.148C265.533 14.829 265.823 14.759 266.019 14.619C266.222 14.472 266.324 14.269 266.324 14.01C266.324 13.744 266.222 13.5445 266.019 13.4115C265.823 13.2785 265.533 13.212 265.148 13.212H263.636V14.829ZM270.201 18V13.0545L270.453 13.317H268.164V12.435H273.246V13.317H270.968L271.209 13.0545V18H270.201ZM276.414 18.063C275.854 18.063 275.357 17.9405 274.923 17.6955C274.489 17.4505 274.146 17.1145 273.894 16.6875C273.642 16.2535 273.516 15.7635 273.516 15.2175C273.516 14.6645 273.642 14.1745 273.894 13.7475C274.146 13.3205 274.489 12.988 274.923 12.75C275.357 12.505 275.854 12.3825 276.414 12.3825C276.967 12.3825 277.461 12.505 277.895 12.75C278.336 12.988 278.679 13.3205 278.924 13.7475C279.176 14.1675 279.302 14.6575 279.302 15.2175C279.302 15.7705 279.176 16.2605 278.924 16.6875C278.679 17.1145 278.336 17.4505 277.895 17.6955C277.461 17.9405 276.967 18.063 276.414 18.063ZM276.414 17.181C276.771 17.181 277.09 17.1005 277.37 16.9395C277.657 16.7785 277.881 16.551 278.042 16.257C278.203 15.956 278.283 15.6095 278.283 15.2175C278.283 14.8185 278.203 14.4755 278.042 14.1885C277.881 13.8945 277.657 13.667 277.37 13.506C277.09 13.345 276.771 13.2645 276.414 13.2645C276.057 13.2645 275.739 13.345 275.459 13.506C275.179 13.667 274.955 13.8945 274.787 14.1885C274.619 14.4755 274.535 14.8185 274.535 15.2175C274.535 15.6095 274.619 15.956 274.787 16.257C274.955 16.551 275.179 16.7785 275.459 16.9395C275.739 17.1005 276.057 17.181 276.414 17.181ZM283.708 18.063C283.246 18.063 282.822 17.958 282.437 17.748C282.059 17.531 281.755 17.2125 281.524 16.7925C281.3 16.3725 281.188 15.8475 281.188 15.2175C281.188 14.5875 281.296 14.0625 281.513 13.6425C281.737 13.2225 282.038 12.9075 282.416 12.6975C282.801 12.4875 283.232 12.3825 283.708 12.3825C284.254 12.3825 284.737 12.5015 285.157 12.7395C285.577 12.9775 285.909 13.31 286.154 13.737C286.399 14.157 286.522 14.6505 286.522 15.2175C286.522 15.7845 286.399 16.2815 286.154 16.7085C285.909 17.1355 285.577 17.468 285.157 17.706C284.737 17.944 284.254 18.063 283.708 18.063ZM280.757 20.037V12.435H281.723V13.9365L281.66 15.228L281.765 16.5195V20.037H280.757ZM283.624 17.181C283.981 17.181 284.299 17.1005 284.579 16.9395C284.866 16.7785 285.09 16.551 285.251 16.257C285.419 15.956 285.503 15.6095 285.503 15.2175C285.503 14.8185 285.419 14.4755 285.251 14.1885C285.09 13.8945 284.866 13.667 284.579 13.506C284.299 13.345 283.981 13.2645 283.624 13.2645C283.274 13.2645 282.955 13.345 282.668 13.506C282.388 13.667 282.164 13.8945 281.996 14.1885C281.835 14.4755 281.755 14.8185 281.755 15.2175C281.755 15.6095 281.835 15.956 281.996 16.257C282.164 16.551 282.388 16.7785 282.668 16.9395C282.955 17.1005 283.274 17.181 283.624 17.181ZM290.412 18.063C289.845 18.063 289.337 17.9405 288.889 17.6955C288.448 17.4505 288.102 17.1145 287.85 16.6875C287.598 16.2605 287.472 15.7705 287.472 15.2175C287.472 14.6645 287.598 14.1745 287.85 13.7475C288.102 13.3205 288.448 12.988 288.889 12.75C289.337 12.505 289.845 12.3825 290.412 12.3825C290.916 12.3825 291.364 12.484 291.756 12.687C292.155 12.883 292.463 13.177 292.68 13.569L291.913 14.0625C291.731 13.7895 291.507 13.59 291.241 13.464C290.982 13.331 290.702 13.2645 290.401 13.2645C290.037 13.2645 289.712 13.345 289.425 13.506C289.138 13.667 288.91 13.8945 288.742 14.1885C288.574 14.4755 288.49 14.8185 288.49 15.2175C288.49 15.6165 288.574 15.963 288.742 16.257C288.91 16.551 289.138 16.7785 289.425 16.9395C289.712 17.1005 290.037 17.181 290.401 17.181C290.702 17.181 290.982 17.118 291.241 16.992C291.507 16.859 291.731 16.656 291.913 16.383L292.68 16.866C292.463 17.251 292.155 17.5485 291.756 17.7585C291.364 17.9615 290.916 18.063 290.412 18.063ZM298.017 18L295.864 15.291L296.694 14.787L299.203 18H298.017ZM293.985 18V12.435H294.993V18H293.985ZM294.688 15.648V14.787H296.526V15.648H294.688ZM296.778 15.333L295.843 15.207L297.975 12.435H299.056L296.778 15.333ZM300.26 18V12.435H301.268V16.488L304.681 12.435H305.594V18H304.586V13.947L301.184 18H300.26ZM306.669 18L309.063 14.892L309.052 15.4065L306.774 12.435H307.897L309.64 14.724H309.21L310.953 12.435H312.055L309.745 15.4275L309.756 14.892L312.171 18H311.026L309.189 15.564L309.598 15.627L307.792 18H306.669ZM142.778 30.5275V26.317H140.363L140.31 27.388C140.296 27.738 140.272 28.0775 140.237 28.4065C140.209 28.7285 140.16 29.026 140.09 29.299C140.027 29.572 139.932 29.796 139.806 29.971C139.68 30.146 139.512 30.2545 139.302 30.2965L138.305 30.118C138.522 30.125 138.697 30.055 138.83 29.908C138.963 29.754 139.064 29.544 139.134 29.278C139.211 29.012 139.267 28.711 139.302 28.375C139.337 28.032 139.365 27.6785 139.386 27.3145L139.47 25.435H143.786V30.5275H142.778ZM138.084 32.2915V30.118H144.636V32.2915H143.691V31H139.04V32.2915H138.084ZM148.427 31.063C147.832 31.063 147.307 30.9405 146.852 30.6955C146.404 30.4505 146.054 30.1145 145.802 29.6875C145.557 29.2605 145.435 28.7705 145.435 28.2175C145.435 27.6645 145.554 27.1745 145.792 26.7475C146.037 26.3205 146.369 25.988 146.789 25.75C147.216 25.505 147.696 25.3825 148.228 25.3825C148.767 25.3825 149.243 25.5015 149.656 25.7395C150.069 25.9775 150.391 26.3135 150.622 26.7475C150.86 27.1745 150.979 27.675 150.979 28.249C150.979 28.291 150.975 28.34 150.968 28.396C150.968 28.452 150.965 28.5045 150.958 28.5535H146.222V27.829H150.433L150.023 28.081C150.03 27.724 149.957 27.4055 149.803 27.1255C149.649 26.8455 149.435 26.6285 149.162 26.4745C148.896 26.3135 148.585 26.233 148.228 26.233C147.878 26.233 147.566 26.3135 147.293 26.4745C147.02 26.6285 146.807 26.849 146.653 27.136C146.499 27.416 146.422 27.738 146.422 28.102V28.27C146.422 28.641 146.506 28.9735 146.674 29.2675C146.849 29.5545 147.09 29.7785 147.398 29.9395C147.706 30.1005 148.06 30.181 148.459 30.181C148.788 30.181 149.085 30.125 149.351 30.013C149.624 29.901 149.862 29.733 150.065 29.509L150.622 30.16C150.37 30.454 150.055 30.678 149.677 30.832C149.306 30.986 148.889 31.063 148.427 31.063ZM155.493 31.063C155.031 31.063 154.607 30.958 154.222 30.748C153.844 30.531 153.54 30.2125 153.309 29.7925C153.085 29.3725 152.973 28.8475 152.973 28.2175C152.973 27.5875 153.081 27.0625 153.298 26.6425C153.522 26.2225 153.823 25.9075 154.201 25.6975C154.586 25.4875 155.017 25.3825 155.493 25.3825C156.039 25.3825 156.522 25.5015 156.942 25.7395C157.362 25.9775 157.694 26.31 157.939 26.737C158.184 27.157 158.307 27.6505 158.307 28.2175C158.307 28.7845 158.184 29.2815 157.939 29.7085C157.694 30.1355 157.362 30.468 156.942 30.706C156.522 30.944 156.039 31.063 155.493 31.063ZM152.542 33.037V25.435H153.508V26.9365L153.445 28.228L153.55 29.5195V33.037H152.542ZM155.409 30.181C155.766 30.181 156.084 30.1005 156.364 29.9395C156.651 29.7785 156.875 29.551 157.036 29.257C157.204 28.956 157.288 28.6095 157.288 28.2175C157.288 27.8185 157.204 27.4755 157.036 27.1885C156.875 26.8945 156.651 26.667 156.364 26.506C156.084 26.345 155.766 26.2645 155.409 26.2645C155.059 26.2645 154.74 26.345 154.453 26.506C154.173 26.667 153.949 26.8945 153.781 27.1885C153.62 27.4755 153.54 27.8185 153.54 28.2175C153.54 28.6095 153.62 28.956 153.781 29.257C153.949 29.551 154.173 29.7785 154.453 29.9395C154.74 30.1005 155.059 30.181 155.409 30.181ZM162.249 31.063C161.654 31.063 161.129 30.9405 160.674 30.6955C160.226 30.4505 159.876 30.1145 159.624 29.6875C159.379 29.2605 159.257 28.7705 159.257 28.2175C159.257 27.6645 159.376 27.1745 159.614 26.7475C159.859 26.3205 160.191 25.988 160.611 25.75C161.038 25.505 161.518 25.3825 162.05 25.3825C162.589 25.3825 163.065 25.5015 163.478 25.7395C163.891 25.9775 164.213 26.3135 164.444 26.7475C164.682 27.1745 164.801 27.675 164.801 28.249C164.801 28.291 164.797 28.34 164.79 28.396C164.79 28.452 164.787 28.5045 164.78 28.5535H160.044V27.829H164.255L163.845 28.081C163.852 27.724 163.779 27.4055 163.625 27.1255C163.471 26.8455 163.257 26.6285 162.984 26.4745C162.718 26.3135 162.407 26.233 162.05 26.233C161.7 26.233 161.388 26.3135 161.115 26.4745C160.842 26.6285 160.629 26.849 160.475 27.136C160.321 27.416 160.244 27.738 160.244 28.102V28.27C160.244 28.641 160.328 28.9735 160.496 29.2675C160.671 29.5545 160.912 29.7785 161.22 29.9395C161.528 30.1005 161.882 30.181 162.281 30.181C162.61 30.181 162.907 30.125 163.173 30.013C163.446 29.901 163.684 29.733 163.887 29.509L164.444 30.16C164.192 30.454 163.877 30.678 163.499 30.832C163.128 30.986 162.711 31.063 162.249 31.063ZM166.365 31V25.435H168.948C169.599 25.435 170.11 25.561 170.481 25.813C170.859 26.058 171.048 26.408 171.048 26.863C171.048 27.318 170.869 27.6715 170.512 27.9235C170.162 28.1685 169.697 28.291 169.116 28.291L169.273 28.018C169.938 28.018 170.432 28.1405 170.754 28.3855C171.076 28.6305 171.237 28.991 171.237 29.467C171.237 29.95 171.055 30.328 170.691 30.601C170.334 30.867 169.784 31 169.042 31H166.365ZM167.352 30.223H168.969C169.389 30.223 169.704 30.16 169.914 30.034C170.124 29.901 170.229 29.691 170.229 29.404C170.229 29.11 170.131 28.8965 169.935 28.7635C169.746 28.6235 169.445 28.5535 169.032 28.5535H167.352V30.223ZM167.352 27.829H168.864C169.249 27.829 169.539 27.759 169.735 27.619C169.938 27.472 170.04 27.269 170.04 27.01C170.04 26.744 169.938 26.5445 169.735 26.4115C169.539 26.2785 169.249 26.212 168.864 26.212H167.352V27.829ZM176.374 31V29.047L176.531 29.236H174.757C174.015 29.236 173.434 29.0785 173.014 28.7635C172.601 28.4485 172.394 27.99 172.394 27.388C172.394 26.744 172.615 26.2575 173.056 25.9285C173.504 25.5995 174.099 25.435 174.841 25.435H177.277V31H176.374ZM172.342 31L173.854 28.8685H174.893L173.423 31H172.342ZM176.374 28.732V26.0335L176.531 26.317H174.872C174.41 26.317 174.053 26.4045 173.801 26.5795C173.549 26.7475 173.423 27.0275 173.423 27.4195C173.423 28.1475 173.892 28.5115 174.83 28.5115H176.531L176.374 28.732ZM179.244 31V25.435H180.252V27.7975H183.423V25.435H184.431V31H183.423V28.669H180.252V31H179.244ZM186.391 31V25.435H187.399V27.7975H190.57V25.435H191.578V31H190.57V28.669H187.399V31H186.391ZM199.04 31V25.435H200.048V31H199.04ZM196.047 27.325C196.754 27.332 197.29 27.493 197.654 27.808C198.025 28.123 198.21 28.5675 198.21 29.1415C198.21 29.7435 198.007 30.209 197.601 30.538C197.202 30.86 196.628 31.0175 195.879 31.0105L193.538 31V25.435H194.546V27.3145L196.047 27.325ZM195.806 30.244C196.254 30.251 196.597 30.16 196.835 29.971C197.073 29.782 197.192 29.502 197.192 29.131C197.192 28.767 197.073 28.501 196.835 28.333C196.604 28.165 196.261 28.0775 195.806 28.0705L194.546 28.0495V30.2335L195.806 30.244ZM201.125 31L203.519 27.892L203.509 28.4065L201.23 25.435H202.354L204.097 27.724H203.666L205.409 25.435H206.512L204.202 28.4275L204.212 27.892L206.627 31H205.483L203.645 28.564L204.055 28.627L202.249 31H201.125ZM210.508 31V25.435H211.516V29.488L214.928 25.435H215.842V31H214.834V26.947L211.432 31H210.508ZM219.334 31.0735C218.914 31.0735 218.501 31.021 218.095 30.916C217.695 30.804 217.338 30.6465 217.023 30.4435L217.328 29.677C217.594 29.845 217.898 29.978 218.242 30.076C218.585 30.167 218.931 30.2125 219.281 30.2125C219.603 30.2125 219.88 30.174 220.111 30.097C220.349 30.02 220.531 29.915 220.657 29.782C220.783 29.642 220.846 29.481 220.846 29.299C220.846 29.04 220.73 28.8405 220.499 28.7005C220.268 28.5605 219.946 28.4905 219.533 28.4905H218.525V27.766H219.47C219.715 27.766 219.929 27.738 220.111 27.682C220.293 27.626 220.433 27.542 220.531 27.43C220.636 27.311 220.688 27.1745 220.688 27.0205C220.688 26.8525 220.629 26.709 220.51 26.59C220.391 26.471 220.223 26.38 220.006 26.317C219.796 26.254 219.547 26.2225 219.26 26.2225C218.98 26.2295 218.693 26.268 218.399 26.338C218.112 26.408 217.818 26.5165 217.517 26.6635L217.244 25.876C217.58 25.715 217.909 25.5925 218.231 25.5085C218.56 25.4175 218.886 25.3685 219.208 25.3615C219.691 25.3475 220.121 25.4035 220.499 25.5295C220.877 25.6485 221.175 25.8235 221.392 26.0545C221.616 26.2855 221.728 26.5585 221.728 26.8735C221.728 27.1395 221.644 27.3775 221.476 27.5875C221.308 27.7905 221.084 27.9515 220.804 28.0705C220.524 28.1895 220.202 28.249 219.838 28.249L219.88 28.0075C220.503 28.0075 220.993 28.13 221.35 28.375C221.707 28.62 221.885 28.9525 221.885 29.3725C221.885 29.7085 221.773 30.006 221.549 30.265C221.325 30.517 221.021 30.7165 220.636 30.8635C220.258 31.0035 219.824 31.0735 219.334 31.0735ZM227.218 30.5275V26.317H224.803L224.751 27.388C224.737 27.738 224.712 28.0775 224.677 28.4065C224.649 28.7285 224.6 29.026 224.53 29.299C224.467 29.572 224.373 29.796 224.247 29.971C224.121 30.146 223.953 30.2545 223.743 30.2965L222.745 30.118C222.962 30.125 223.137 30.055 223.27 29.908C223.403 29.754 223.505 29.544 223.575 29.278C223.652 29.012 223.708 28.711 223.743 28.375C223.778 28.032 223.806 27.6785 223.827 27.3145L223.911 25.435H228.226V30.5275H227.218ZM222.525 32.2915V30.118H229.077V32.2915H228.132V31H223.48V32.2915H222.525ZM232.868 31.063C232.273 31.063 231.748 30.9405 231.293 30.6955C230.845 30.4505 230.495 30.1145 230.243 29.6875C229.998 29.2605 229.876 28.7705 229.876 28.2175C229.876 27.6645 229.995 27.1745 230.233 26.7475C230.478 26.3205 230.81 25.988 231.23 25.75C231.657 25.505 232.137 25.3825 232.669 25.3825C233.208 25.3825 233.684 25.5015 234.097 25.7395C234.51 25.9775 234.832 26.3135 235.063 26.7475C235.301 27.1745 235.42 27.675 235.42 28.249C235.42 28.291 235.416 28.34 235.409 28.396C235.409 28.452 235.406 28.5045 235.399 28.5535H230.663V27.829H234.874L234.464 28.081C234.471 27.724 234.398 27.4055 234.244 27.1255C234.09 26.8455 233.876 26.6285 233.603 26.4745C233.337 26.3135 233.026 26.233 232.669 26.233C232.319 26.233 232.007 26.3135 231.734 26.4745C231.461 26.6285 231.248 26.849 231.094 27.136C230.94 27.416 230.863 27.738 230.863 28.102V28.27C230.863 28.641 230.947 28.9735 231.115 29.2675C231.29 29.5545 231.531 29.7785 231.839 29.9395C232.147 30.1005 232.501 30.181 232.9 30.181C233.229 30.181 233.526 30.125 233.792 30.013C234.065 29.901 234.303 29.733 234.506 29.509L235.063 30.16C234.811 30.454 234.496 30.678 234.118 30.832C233.747 30.986 233.33 31.063 232.868 31.063ZM235.967 30.9895L236.03 30.139C236.079 30.146 236.125 30.153 236.167 30.16C236.209 30.167 236.247 30.1705 236.282 30.1705C236.506 30.1705 236.681 30.0935 236.807 29.9395C236.94 29.7855 237.038 29.5825 237.101 29.3305C237.164 29.0715 237.21 28.781 237.238 28.459C237.266 28.137 237.287 27.815 237.301 27.493L237.395 25.435H241.669V31H240.661V26.023L240.902 26.317H238.046L238.277 26.0125L238.204 27.556C238.183 28.046 238.144 28.5045 238.088 28.9315C238.032 29.3585 237.945 29.733 237.826 30.055C237.714 30.377 237.556 30.629 237.353 30.811C237.157 30.993 236.902 31.084 236.587 31.084C236.496 31.084 236.398 31.0735 236.293 31.0525C236.195 31.0385 236.086 31.0175 235.967 30.9895ZM243.618 31V25.435H244.626V29.488L248.038 25.435H248.952V31H247.944V26.947L244.542 31H243.618ZM250.908 31V25.435H251.916V29.488L255.329 25.435H256.242V31H255.234V26.947L251.832 31H250.908ZM253.512 24.7105C253.001 24.7105 252.599 24.588 252.305 24.343C252.018 24.091 251.871 23.7305 251.864 23.2615H252.546C252.553 23.5275 252.641 23.7375 252.809 23.8915C252.984 24.0455 253.215 24.1225 253.502 24.1225C253.789 24.1225 254.02 24.0455 254.195 23.8915C254.37 23.7375 254.461 23.5275 254.468 23.2615H255.171C255.164 23.7305 255.014 24.091 254.72 24.343C254.426 24.588 254.023 24.7105 253.512 24.7105ZM263.969 31.063C263.507 31.063 263.084 30.958 262.699 30.748C262.321 30.531 262.016 30.2125 261.785 29.7925C261.561 29.3725 261.449 28.8475 261.449 28.2175C261.449 27.5875 261.558 27.0625 261.775 26.6425C261.999 26.2225 262.3 25.9075 262.678 25.6975C263.063 25.4875 263.493 25.3825 263.969 25.3825C264.515 25.3825 264.998 25.5015 265.418 25.7395C265.838 25.9775 266.171 26.31 266.416 26.737C266.661 27.157 266.783 27.6505 266.783 28.2175C266.783 28.7845 266.661 29.2815 266.416 29.7085C266.171 30.1355 265.838 30.468 265.418 30.706C264.998 30.944 264.515 31.063 263.969 31.063ZM261.018 33.037V25.435H261.985V26.9365L261.922 28.228L262.027 29.5195V33.037H261.018ZM263.885 30.181C264.242 30.181 264.561 30.1005 264.841 29.9395C265.128 29.7785 265.352 29.551 265.513 29.257C265.681 28.956 265.765 28.6095 265.765 28.2175C265.765 27.8185 265.681 27.4755 265.513 27.1885C265.352 26.8945 265.128 26.667 264.841 26.506C264.561 26.345 264.242 26.2645 263.885 26.2645C263.535 26.2645 263.217 26.345 262.93 26.506C262.65 26.667 262.426 26.8945 262.258 27.1885C262.097 27.4755 262.016 27.8185 262.016 28.2175C262.016 28.6095 262.097 28.956 262.258 29.257C262.426 29.551 262.65 29.7785 262.93 29.9395C263.217 30.1005 263.535 30.181 263.885 30.181ZM268.377 33.1C268.111 33.1 267.852 33.0545 267.6 32.9635C267.348 32.8795 267.131 32.7535 266.949 32.5855L267.38 31.8295C267.52 31.9625 267.674 32.064 267.842 32.134C268.01 32.204 268.188 32.239 268.377 32.239C268.622 32.239 268.825 32.176 268.986 32.05C269.147 31.924 269.298 31.7 269.438 31.378L269.784 30.6115L269.889 30.4855L272.073 25.435H273.06L270.362 31.5565C270.201 31.9485 270.019 32.2565 269.816 32.4805C269.62 32.7045 269.403 32.862 269.165 32.953C268.927 33.051 268.664 33.1 268.377 33.1ZM269.7 31.1785L267.159 25.435H268.209L270.372 30.391L269.7 31.1785ZM277.599 28.7215C277.305 28.8615 277.001 28.9735 276.686 29.0575C276.378 29.1345 276.059 29.173 275.73 29.173C275.058 29.173 274.526 29.0155 274.134 28.7005C273.749 28.3855 273.557 27.899 273.557 27.241V25.435H274.565V27.178C274.565 27.577 274.687 27.871 274.932 28.06C275.184 28.249 275.52 28.3435 275.94 28.3435C276.206 28.3435 276.479 28.3085 276.759 28.2385C277.046 28.1685 277.326 28.0705 277.599 27.9445V28.7215ZM277.526 31V25.435H278.534V31H277.526ZM280.491 31V25.435H281.499V27.7975H284.67V25.435H285.678V31H284.67V28.669H281.499V31H280.491ZM290.021 31.063C289.461 31.063 288.964 30.9405 288.53 30.6955C288.096 30.4505 287.753 30.1145 287.501 29.6875C287.249 29.2535 287.123 28.7635 287.123 28.2175C287.123 27.6645 287.249 27.1745 287.501 26.7475C287.753 26.3205 288.096 25.988 288.53 25.75C288.964 25.505 289.461 25.3825 290.021 25.3825C290.574 25.3825 291.068 25.505 291.502 25.75C291.943 25.988 292.286 26.3205 292.531 26.7475C292.783 27.1675 292.909 27.6575 292.909 28.2175C292.909 28.7705 292.783 29.2605 292.531 29.6875C292.286 30.1145 291.943 30.4505 291.502 30.6955C291.068 30.9405 290.574 31.063 290.021 31.063ZM290.021 30.181C290.378 30.181 290.697 30.1005 290.977 29.9395C291.264 29.7785 291.488 29.551 291.649 29.257C291.81 28.956 291.89 28.6095 291.89 28.2175C291.89 27.8185 291.81 27.4755 291.649 27.1885C291.488 26.8945 291.264 26.667 290.977 26.506C290.697 26.345 290.378 26.2645 290.021 26.2645C289.664 26.2645 289.346 26.345 289.066 26.506C288.786 26.667 288.562 26.8945 288.394 27.1885C288.226 27.4755 288.142 27.8185 288.142 28.2175C288.142 28.6095 288.226 28.956 288.394 29.257C288.562 29.551 288.786 29.7785 289.066 29.9395C289.346 30.1005 289.664 30.181 290.021 30.181ZM294.364 31V25.435H295.372V29.488L298.785 25.435H299.698V31H298.69V26.947L295.288 31H294.364ZM296.968 24.7105C296.457 24.7105 296.055 24.588 295.761 24.343C295.474 24.091 295.327 23.7305 295.32 23.2615H296.002C296.009 23.5275 296.097 23.7375 296.265 23.8915C296.44 24.0455 296.671 24.1225 296.958 24.1225C297.245 24.1225 297.476 24.0455 297.651 23.8915C297.826 23.7375 297.917 23.5275 297.924 23.2615H298.627C298.62 23.7305 298.47 24.091 298.176 24.343C297.882 24.588 297.479 24.7105 296.968 24.7105ZM307.425 31.063C306.963 31.063 306.54 30.958 306.155 30.748C305.777 30.531 305.472 30.2125 305.241 29.7925C305.017 29.3725 304.905 28.8475 304.905 28.2175C304.905 27.5875 305.014 27.0625 305.231 26.6425C305.455 26.2225 305.756 25.9075 306.134 25.6975C306.519 25.4875 306.949 25.3825 307.425 25.3825C307.971 25.3825 308.454 25.5015 308.874 25.7395C309.294 25.9775 309.627 26.31 309.872 26.737C310.117 27.157 310.239 27.6505 310.239 28.2175C310.239 28.7845 310.117 29.2815 309.872 29.7085C309.627 30.1355 309.294 30.468 308.874 30.706C308.454 30.944 307.971 31.063 307.425 31.063ZM304.475 33.037V25.435H305.441V26.9365L305.378 28.228L305.483 29.5195V33.037H304.475ZM307.341 30.181C307.698 30.181 308.017 30.1005 308.297 29.9395C308.584 29.7785 308.808 29.551 308.969 29.257C309.137 28.956 309.221 28.6095 309.221 28.2175C309.221 27.8185 309.137 27.4755 308.969 27.1885C308.808 26.8945 308.584 26.667 308.297 26.506C308.017 26.345 307.698 26.2645 307.341 26.2645C306.991 26.2645 306.673 26.345 306.386 26.506C306.106 26.667 305.882 26.8945 305.714 27.1885C305.553 27.4755 305.472 27.8185 305.472 28.2175C305.472 28.6095 305.553 28.956 305.714 29.257C305.882 29.551 306.106 29.7785 306.386 29.9395C306.673 30.1005 306.991 30.181 307.341 30.181ZM315.065 31V29.824L315.012 29.6035V27.598C315.012 27.171 314.886 26.842 314.634 26.611C314.389 26.373 314.018 26.254 313.521 26.254C313.192 26.254 312.87 26.31 312.555 26.422C312.24 26.527 311.974 26.6705 311.757 26.8525L311.337 26.0965C311.624 25.8655 311.967 25.6905 312.366 25.5715C312.772 25.4455 313.196 25.3825 313.637 25.3825C314.4 25.3825 314.988 25.568 315.401 25.939C315.814 26.31 316.02 26.877 316.02 27.64V31H315.065ZM313.238 31.063C312.825 31.063 312.461 30.993 312.146 30.853C311.838 30.713 311.6 30.5205 311.432 30.2755C311.264 30.0235 311.18 29.74 311.18 29.425C311.18 29.124 311.25 28.851 311.39 28.606C311.537 28.361 311.771 28.165 312.093 28.018C312.422 27.871 312.863 27.7975 313.416 27.7975H315.18V28.522H313.458C312.954 28.522 312.615 28.606 312.44 28.774C312.265 28.942 312.177 29.145 312.177 29.383C312.177 29.656 312.286 29.8765 312.503 30.0445C312.72 30.2055 313.021 30.286 313.406 30.286C313.784 30.286 314.113 30.202 314.393 30.034C314.68 29.866 314.886 29.621 315.012 29.299L315.212 29.992C315.079 30.321 314.844 30.5835 314.508 30.7795C314.172 30.9685 313.749 31.063 313.238 31.063ZM320.408 31.084C319.946 31.084 319.536 31.0105 319.179 30.8635C318.829 30.7165 318.528 30.4995 318.276 30.2125C318.024 29.9185 317.832 29.551 317.699 29.11C317.573 28.662 317.51 28.137 317.51 27.535C317.51 27.059 317.552 26.632 317.636 26.254C317.72 25.876 317.839 25.54 317.993 25.246C318.154 24.952 318.35 24.6965 318.581 24.4795C318.819 24.2625 319.085 24.084 319.379 23.944C319.68 23.797 320.009 23.685 320.366 23.608L322.907 23.041L323.054 23.9755L320.712 24.4795C320.572 24.5075 320.404 24.5495 320.208 24.6055C320.012 24.6615 319.813 24.749 319.61 24.868C319.407 24.98 319.218 25.1375 319.043 25.3405C318.868 25.5435 318.728 25.8095 318.623 26.1385C318.518 26.4605 318.465 26.8595 318.465 27.3355C318.465 27.4685 318.469 27.57 318.476 27.64C318.483 27.71 318.49 27.78 318.497 27.85C318.511 27.92 318.521 28.025 318.528 28.165L318.108 27.7345C318.22 27.3495 318.399 27.0135 318.644 26.7265C318.889 26.4395 319.183 26.219 319.526 26.065C319.876 25.904 320.257 25.8235 320.67 25.8235C321.188 25.8235 321.647 25.9355 322.046 26.1595C322.452 26.3835 322.77 26.6915 323.001 27.0835C323.232 27.4755 323.348 27.9235 323.348 28.4275C323.348 28.9385 323.225 29.397 322.98 29.803C322.742 30.202 322.403 30.517 321.962 30.748C321.521 30.972 321.003 31.084 320.408 31.084ZM320.502 30.244C320.859 30.244 321.174 30.167 321.447 30.013C321.72 29.852 321.934 29.6385 322.088 29.3725C322.242 29.0995 322.319 28.795 322.319 28.459C322.319 28.123 322.242 27.8255 322.088 27.5665C321.934 27.3075 321.72 27.1045 321.447 26.9575C321.174 26.8035 320.852 26.7265 320.481 26.7265C320.131 26.7265 319.816 26.8 319.536 26.947C319.256 27.087 319.039 27.2865 318.885 27.5455C318.731 27.7975 318.654 28.0915 318.654 28.4275C318.654 28.7635 318.731 29.0715 318.885 29.3515C319.046 29.6245 319.263 29.8415 319.536 30.0025C319.816 30.1635 320.138 30.244 320.502 30.244ZM327.171 31.063C326.611 31.063 326.114 30.9405 325.68 30.6955C325.246 30.4505 324.903 30.1145 324.651 29.6875C324.399 29.2535 324.273 28.7635 324.273 28.2175C324.273 27.6645 324.399 27.1745 324.651 26.7475C324.903 26.3205 325.246 25.988 325.68 25.75C326.114 25.505 326.611 25.3825 327.171 25.3825C327.724 25.3825 328.218 25.505 328.652 25.75C329.093 25.988 329.436 26.3205 329.681 26.7475C329.933 27.1675 330.059 27.6575 330.059 28.2175C330.059 28.7705 329.933 29.2605 329.681 29.6875C329.436 30.1145 329.093 30.4505 328.652 30.6955C328.218 30.9405 327.724 31.063 327.171 31.063ZM327.171 30.181C327.528 30.181 327.847 30.1005 328.127 29.9395C328.414 29.7785 328.638 29.551 328.799 29.257C328.96 28.956 329.04 28.6095 329.04 28.2175C329.04 27.8185 328.96 27.4755 328.799 27.1885C328.638 26.8945 328.414 26.667 328.127 26.506C327.847 26.345 327.528 26.2645 327.171 26.2645C326.814 26.2645 326.496 26.345 326.216 26.506C325.936 26.667 325.712 26.8945 325.544 27.1885C325.376 27.4755 325.292 27.8185 325.292 28.2175C325.292 28.6095 325.376 28.956 325.544 29.257C325.712 29.551 325.936 29.7785 326.216 29.9395C326.496 30.1005 326.814 30.181 327.171 30.181ZM332.412 31V26.0545L332.664 26.317H330.375V25.435H335.457V26.317H333.178L333.42 26.0545V31H332.412ZM341.989 31V25.435H342.997V31H341.989ZM338.997 27.325C339.704 27.332 340.239 27.493 340.603 27.808C340.974 28.123 341.16 28.5675 341.16 29.1415C341.16 29.7435 340.957 30.209 340.551 30.538C340.152 30.86 339.578 31.0175 338.829 31.0105L336.487 31V25.435H337.495V27.3145L338.997 27.325ZM338.755 30.244C339.203 30.251 339.546 30.16 339.784 29.971C340.022 29.782 340.141 29.502 340.141 29.131C340.141 28.767 340.022 28.501 339.784 28.333C339.553 28.165 339.21 28.0775 338.755 28.0705L337.495 28.0495V30.2335L338.755 30.244Z" fill="#E8D6AC"/>
<path fill-rule="evenodd" clip-rule="evenodd" d="M13.8551 14.0358V13.9922C11.4796 12.8889 8.48993 11.2532 5.49768 8.86738C0.395058 4.80231 5.18928 0.296945 9.94018 0.296945C13.0191 0.296945 15.7029 1.88662 17.1991 4.3185C17.1991 4.3185 17.2857 4.49513 17.4182 4.40553C17.5508 4.36202 17.4616 4.2289 17.4616 4.2289C15.9221 1.70999 13.1083 0.0332783 9.94018 0.0332783C5.0593 0.0332783 1.09852 3.96524 1.09852 8.86738C1.09852 11.2967 2.77051 13.4623 5.27849 14.6988C6.55287 15.4514 12.9758 18.9405 16.1872 20.7503C21.6849 23.8887 16.5389 30.6903 9.89685 30.6903C4.57503 30.6903 0.265071 26.8479 0.265071 22.1198C0.265071 21.9893 0.219194 21.8997 0.132536 21.8997C0 21.8997 0 22.0328 0 22.1198C0 26.981 4.39917 30.9565 9.89685 30.9565C15.3512 30.9565 19.7937 26.981 19.7937 22.1198C19.7937 18.4976 18.6926 16.3345 13.8551 14.0358ZM21.4478 4.23658L21.3816 4.07019C21.7257 3.92428 22.0035 3.77069 22.2023 3.60941C22.4036 3.44814 22.5795 3.24079 22.7222 2.98737C22.9465 2.59827 23.0714 2.22197 23.1045 1.8559C22.9593 1.90454 22.8344 1.92758 22.7273 1.92758C22.4342 1.92758 22.1946 1.84055 22.0086 1.66647C21.82 1.4924 21.7257 1.26457 21.7257 0.982989C21.7257 0.714203 21.82 0.483815 22.0086 0.291825C22.1972 0.097275 22.4215 0 22.684 0C23.0051 0 23.2651 0.127993 23.4639 0.38654C23.6627 0.645087 23.7596 0.985549 23.7596 1.41305C23.7596 1.83287 23.6602 2.24756 23.4588 2.6597C23.2575 3.07184 22.9924 3.40462 22.6611 3.67085C22.3119 3.94988 21.9066 4.13931 21.4478 4.23658ZM30.7432 0.473576C30.654 0.163832 30.5214 0.0332783 30.3022 0.0332783C30.1697 0.0332783 30.1697 0.076796 30.1264 0.163832L21.1547 30.7363C21.1089 30.8234 21.1547 30.9565 21.1981 30.9565C21.2847 31 21.3739 30.9565 21.4173 30.8234L26.5199 13.4393H30.6106L35.7566 28.1662C36.2842 29.6689 37.3853 30.8669 39.1006 31H40.5508C40.9026 31 41.2976 30.6903 41.1676 30.337L30.7432 0.473576ZM26.6065 13.1756L28.3677 7.11643L30.5214 13.1756H26.6065ZM48.3806 30.9565C48.6432 30.9565 48.9082 30.6903 48.9082 30.4266V0.563171C48.9082 0.253427 48.6432 0.0332783 48.3806 0.0332783H45.0366C44.7308 0.0332783 44.5091 0.253427 44.5091 0.563171V27.2447C44.5091 29.2772 46.1377 30.9565 48.2048 30.9565H48.3806ZM62.1032 8.78035C61.1372 8.78035 59.4219 9.31024 57.704 10.5031V0.473576C57.704 0.209909 57.4415 0.0332783 57.1764 0.0332783H53.835C53.5266 0.0332783 53.3074 0.209909 53.3074 0.473576V30.337C53.3074 30.6467 53.5266 30.9565 53.835 30.9565H57.1764C57.4415 30.9565 57.704 30.6467 57.704 30.337V28.2174C59.0243 29.7636 60.4771 30.8669 62.1032 30.8669C68.7019 30.8669 70.9015 25.9647 70.9015 19.8236C70.9015 13.726 68.7019 8.78035 62.1032 8.78035ZM62.1032 30.5597C60.6529 30.5597 59.1135 29.4103 57.704 27.8206V11.8727L55.7695 13.0656C55.9454 12.6227 56.2104 12.2259 56.5622 11.8727C56.9572 11.4298 57.6607 10.9434 57.704 10.8999C59.5952 9.53039 61.4889 9.13361 62.0598 9.13361C65.2713 9.13361 66.2831 13.9922 66.2831 19.8671C66.3265 25.6985 65.1821 30.5597 62.1032 30.5597ZM89.2857 13.5494C89.3749 13.5494 89.4183 13.4623 89.4183 13.4188C89.4183 13.3292 89.3749 13.2857 89.3316 13.1961C87.7029 10.5467 85.195 8.86738 82.3378 8.86738C77.4544 8.86738 73.5395 13.8156 73.5395 19.9107C73.5395 26.0083 77.4544 30.9565 82.3378 30.9565C85.1516 30.9565 87.6596 29.2772 89.2424 26.7148C89.2857 26.6713 89.3316 26.5817 89.2424 26.5382C89.1557 26.4946 89.0665 26.5817 89.0665 26.5817C88.098 28.1278 86.8236 29.3207 85.3275 30.0273C85.2408 30.0733 85.1516 30.1168 85.065 30.1168C82.8195 30.7363 79.7865 26.6713 78.247 21.0165C77.4977 18.2339 77.2785 15.5819 77.4977 13.5494H89.2857ZM79.2589 9.84013C79.2589 9.84013 79.5214 9.70702 79.6106 9.6635C81.0175 9.31024 82.7329 10.7668 84.1831 13.2857H77.5436C77.8061 11.5194 78.377 10.2804 79.2589 9.84013ZM97.1155 10.6337V9.39727C97.1155 9.08753 96.853 8.86738 96.5879 8.86738H93.244C92.9381 8.86738 92.7164 9.08753 92.7164 9.39727V30.4266C92.7164 30.6903 92.9381 30.9565 93.244 30.9565H96.5879C96.853 30.9565 97.1155 30.6903 97.1155 30.4266V11.9162L95.181 13.1091C96.1929 10.8129 99.7561 9.08753 103.977 9.08753C103.977 9.08753 104.066 9.08753 104.066 8.95698C104.066 8.86738 103.977 8.86738 103.977 8.86738C101.25 8.86738 98.7875 9.53039 97.1155 10.6337ZM112.204 8.86738C107.321 8.86738 103.406 13.8156 103.406 19.9107C103.406 26.0083 107.321 30.9565 112.204 30.9565C117.042 30.9565 121 26.0083 121 19.9107C121 13.8156 117.042 8.86738 112.204 8.86738ZM114.929 30.1168C112.686 30.7363 109.607 26.6713 108.111 21.0165C106.617 15.3618 107.188 10.2804 109.474 9.70702C111.72 9.08753 114.753 13.1526 116.249 18.8074C117.745 24.4621 117.174 29.5434 114.929 30.1168Z" fill="url(#paint1_linear_118_1111)"/>
<path fill-rule="evenodd" clip-rule="evenodd" d="M13.8551 14.0358V13.9922C11.4796 12.8889 8.48993 11.2532 5.49768 8.86738C0.395058 4.80231 5.18928 0.296945 9.94018 0.296945C13.0191 0.296945 15.7029 1.88662 17.1991 4.3185C17.1991 4.3185 17.2857 4.49513 17.4182 4.40553C17.5508 4.36202 17.4616 4.2289 17.4616 4.2289C15.9221 1.70999 13.1083 0.0332783 9.94018 0.0332783C5.0593 0.0332783 1.09852 3.96524 1.09852 8.86738C1.09852 11.2967 2.77051 13.4623 5.27849 14.6988C6.55287 15.4514 12.9758 18.9405 16.1872 20.7503C21.6849 23.8887 16.5389 30.6903 9.89685 30.6903C4.57503 30.6903 0.265071 26.8479 0.265071 22.1198C0.265071 21.9893 0.219194 21.8997 0.132536 21.8997C0 21.8997 0 22.0328 0 22.1198C0 26.981 4.39917 30.9565 9.89685 30.9565C15.3512 30.9565 19.7937 26.981 19.7937 22.1198C19.7937 18.4976 18.6926 16.3345 13.8551 14.0358ZM21.4478 4.23658L21.3816 4.07019C21.7257 3.92428 22.0035 3.77069 22.2023 3.60941C22.4036 3.44814 22.5795 3.24079 22.7222 2.98737C22.9465 2.59827 23.0714 2.22197 23.1045 1.8559C22.9593 1.90454 22.8344 1.92758 22.7273 1.92758C22.4342 1.92758 22.1946 1.84055 22.0086 1.66647C21.82 1.4924 21.7257 1.26457 21.7257 0.982989C21.7257 0.714203 21.82 0.483815 22.0086 0.291825C22.1972 0.097275 22.4215 0 22.684 0C23.0051 0 23.2651 0.127993 23.4639 0.38654C23.6627 0.645087 23.7596 0.985549 23.7596 1.41305C23.7596 1.83287 23.6602 2.24756 23.4588 2.6597C23.2575 3.07184 22.9924 3.40462 22.6611 3.67085C22.3119 3.94988 21.9066 4.13931 21.4478 4.23658ZM30.7432 0.473576C30.654 0.163832 30.5214 0.0332783 30.3022 0.0332783C30.1697 0.0332783 30.1697 0.076796 30.1264 0.163832L21.1547 30.7363C21.1089 30.8234 21.1547 30.9565 21.1981 30.9565C21.2847 31 21.3739 30.9565 21.4173 30.8234L26.5199 13.4393H30.6106L35.7566 28.1662C36.2842 29.6689 37.3853 30.8669 39.1006 31H40.5508C40.9026 31 41.2976 30.6903 41.1676 30.337L30.7432 0.473576ZM26.6065 13.1756L28.3677 7.11643L30.5214 13.1756H26.6065ZM48.3806 30.9565C48.6432 30.9565 48.9082 30.6903 48.9082 30.4266V0.563171C48.9082 0.253427 48.6432 0.0332783 48.3806 0.0332783H45.0366C44.7308 0.0332783 44.5091 0.253427 44.5091 0.563171V27.2447C44.5091 29.2772 46.1377 30.9565 48.2048 30.9565H48.3806ZM62.1032 8.78035C61.1372 8.78035 59.4219 9.31024 57.704 10.5031V0.473576C57.704 0.209909 57.4415 0.0332783 57.1764 0.0332783H53.835C53.5266 0.0332783 53.3074 0.209909 53.3074 0.473576V30.337C53.3074 30.6467 53.5266 30.9565 53.835 30.9565H57.1764C57.4415 30.9565 57.704 30.6467 57.704 30.337V28.2174C59.0243 29.7636 60.4771 30.8669 62.1032 30.8669C68.7019 30.8669 70.9015 25.9647 70.9015 19.8236C70.9015 13.726 68.7019 8.78035 62.1032 8.78035ZM62.1032 30.5597C60.6529 30.5597 59.1135 29.4103 57.704 27.8206V11.8727L55.7695 13.0656C55.9454 12.6227 56.2104 12.2259 56.5622 11.8727C56.9572 11.4298 57.6607 10.9434 57.704 10.8999C59.5952 9.53039 61.4889 9.13361 62.0598 9.13361C65.2713 9.13361 66.2831 13.9922 66.2831 19.8671C66.3265 25.6985 65.1821 30.5597 62.1032 30.5597ZM89.2857 13.5494C89.3749 13.5494 89.4183 13.4623 89.4183 13.4188C89.4183 13.3292 89.3749 13.2857 89.3316 13.1961C87.7029 10.5467 85.195 8.86738 82.3378 8.86738C77.4544 8.86738 73.5395 13.8156 73.5395 19.9107C73.5395 26.0083 77.4544 30.9565 82.3378 30.9565C85.1516 30.9565 87.6596 29.2772 89.2424 26.7148C89.2857 26.6713 89.3316 26.5817 89.2424 26.5382C89.1557 26.4946 89.0665 26.5817 89.0665 26.5817C88.098 28.1278 86.8236 29.3207 85.3275 30.0273C85.2408 30.0733 85.1516 30.1168 85.065 30.1168C82.8195 30.7363 79.7865 26.6713 78.247 21.0165C77.4977 18.2339 77.2785 15.5819 77.4977 13.5494H89.2857ZM79.2589 9.84013C79.2589 9.84013 79.5214 9.70702 79.6106 9.6635C81.0175 9.31024 82.7329 10.7668 84.1831 13.2857H77.5436C77.8061 11.5194 78.377 10.2804 79.2589 9.84013ZM97.1155 10.6337V9.39727C97.1155 9.08753 96.853 8.86738 96.5879 8.86738H93.244C92.9381 8.86738 92.7164 9.08753 92.7164 9.39727V30.4266C92.7164 30.6903 92.9381 30.9565 93.244 30.9565H96.5879C96.853 30.9565 97.1155 30.6903 97.1155 30.4266V11.9162L95.181 13.1091C96.1929 10.8129 99.7561 9.08753 103.977 9.08753C103.977 9.08753 104.066 9.08753 104.066 8.95698C104.066 8.86738 103.977 8.86738 103.977 8.86738C101.25 8.86738 98.7875 9.53039 97.1155 10.6337ZM112.204 8.86738C107.321 8.86738 103.406 13.8156 103.406 19.9107C103.406 26.0083 107.321 30.9565 112.204 30.9565C117.042 30.9565 121 26.0083 121 19.9107C121 13.8156 117.042 8.86738 112.204 8.86738ZM114.929 30.1168C112.686 30.7363 109.607 26.6713 108.111 21.0165C106.617 15.3618 107.188 10.2804 109.474 9.70702C111.72 9.08753 114.753 13.1526 116.249 18.8074C117.745 24.4621 117.174 29.5434 114.929 30.1168Z" fill="#E8D6AC"/>
<defs>
<linearGradient id="paint0_linear_118_1111" x1="345" y1="34" x2="304.185" y2="-59.3519" gradientUnits="userSpaceOnUse">
<stop stop-color="#E8D6AC"/>
<stop offset="1" stop-color="#987C3C"/>
</linearGradient>
<linearGradient id="paint1_linear_118_1111" x1="121" y1="31" x2="55.1415" y2="-42.8477" gradientUnits="userSpaceOnUse">
<stop stop-color="#E8D6AC"/>
<stop offset="1" stop-color="#987C3C"/>
</linearGradient>
</defs>
</svg>
